<?xml version="1.0" encoding="utf-8"?>
<!-- Generator: Adobe Illustrator 22.0.1, SVG Export Plug-In . SVG Version: 6.00 Build 0)  -->
<svg version="1.1" id="Layer_1" xmlns="http://www.w3.org/2000/svg" xmlns:xlink="http://www.w3.org/1999/xlink" x="0px" y="0px"
	 viewBox="0 0 262.7 263.6" style="enable-background:new 0 0 262.7 263.6;" xml:space="preserve">
<style type="text/css">
	.st0{fill:#DCEBF9;}
</style>
<rect x="22.6" y="22.7" class="st0" width="48.2" height="48.2"/>
<rect x="78.8" y="22.7" class="st0" width="48.2" height="48.2"/>
<rect x="134.9" y="22.7" class="st0" width="48.2" height="48.2"/>
<rect x="191.1" y="22.7" class="st0" width="48.2" height="48.2"/>
<rect x="22.6" y="78.8" class="st0" width="48.2" height="48.2"/>
<rect x="78.8" y="78.8" class="st0" width="48.2" height="48.2"/>
<rect x="134.9" y="78.8" class="st0" width="48.2" height="48.2"/>
<rect x="191.1" y="78.8" class="st0" width="48.2" height="48.2"/>
<rect x="22.6" y="135" class="st0" width="48.2" height="48.2"/>
<rect x="78.8" y="135" class="st0" width="48.2" height="48.2"/>
<rect x="134.9" y="135" class="st0" width="48.2" height="48.2"/>
<rect x="191.1" y="135" class="st0" width="48.2" height="48.2"/>
<rect x="22.6" y="191.2" class="st0" width="48.2" height="48.2"/>
<rect x="78.8" y="191.2" class="st0" width="48.2" height="48.2"/>
<rect x="134.9" y="191.2" class="st0" width="48.2" height="48.2"/>
<rect x="191.1" y="191.2" class="st0" width="48.2" height="48.2"/>
</svg>
