<?xml version="1.0" encoding="utf-8"?>
<!-- Generator: Adobe Illustrator 22.0.1, SVG Export Plug-In . SVG Version: 6.00 Build 0)  -->
<svg version="1.1" id="Layer_1" xmlns="http://www.w3.org/2000/svg" xmlns:xlink="http://www.w3.org/1999/xlink" x="0px" y="0px"
	 viewBox="0 0 262.7 263.6" style="enable-background:new 0 0 262.7 263.6;" xml:space="preserve">
<style type="text/css">
	.st0{fill:#11283F;}
	.st1{fill:#DCEBF9;}
	.st2{fill:#FFFFFF;}
	.st3{fill:none;stroke:#71AFEC;stroke-miterlimit:10;}
	.st4{opacity:0.8;enable-background:new    ;}
	.st5{fill:#F2E08B;}
	.st6{fill:#FFFFFF;stroke:#71AFEC;stroke-miterlimit:10;}
	.st7{fill:none;}
	.st8{fill-rule:evenodd;clip-rule:evenodd;fill:#ADCFF2;}
	.st9{fill:#4293E3;}
	.st10{fill:none;stroke:#71AFEC;stroke-width:5;stroke-miterlimit:10;}
</style>
<path class="st0" d="M216.6,217.3H68.8c-12.5,0-22.7-1.9-22.7-4.2v-27.6c0-2.3,10.2-4.2,22.7-4.2h147.8c12.5,0,22.7,1.9,22.7,4.2
	V213C239.3,215.4,229.2,217.3,216.6,217.3z"/>
<rect x="33.5" y="23.9" class="st1" width="217.3" height="172.5"/>
<rect x="52.6" y="39.1" class="st2" width="179" height="142.1"/>
<path class="st1" d="M251.7,228H34.5v-23.7h217.2V228z"/>
<image style="overflow:visible;" width="2268" height="434" xlink:href="../../../../../../../Desktop/Screen Shot 2018-03-10 at 1.05.25 AM.png"  transform="matrix(4.657469e-02 0 0 4.657469e-02 65.6243 136.2433)">
</image>
<g>
	<rect x="180.6" y="77.7" class="st1" width="7.4" height="7.4"/>
	<rect x="189.2" y="77.7" class="st1" width="7.4" height="7.4"/>
	<rect x="197.8" y="77.7" class="st1" width="7.4" height="7.4"/>
	<rect x="206.4" y="77.7" class="st1" width="7.4" height="7.4"/>
	<rect x="180.6" y="86.3" class="st1" width="7.4" height="7.4"/>
	<rect x="189.2" y="86.3" class="st1" width="7.4" height="7.4"/>
	<rect x="197.8" y="86.3" class="st1" width="7.4" height="7.4"/>
	<rect x="206.4" y="86.3" class="st1" width="7.4" height="7.4"/>
	<rect x="180.6" y="94.9" class="st1" width="7.4" height="7.4"/>
	<rect x="189.2" y="94.9" class="st1" width="7.4" height="7.4"/>
	<rect x="197.8" y="94.9" class="st1" width="7.4" height="7.4"/>
	<rect x="206.4" y="94.9" class="st1" width="7.4" height="7.4"/>
	<rect x="180.6" y="103.5" class="st1" width="7.4" height="7.4"/>
	<rect x="189.2" y="103.5" class="st1" width="7.4" height="7.4"/>
	<rect x="197.8" y="103.5" class="st1" width="7.4" height="7.4"/>
	<rect x="206.4" y="103.5" class="st1" width="7.4" height="7.4"/>
</g>
<image style="overflow:visible;" width="2326" height="170" xlink:href="../../../../../../../Desktop/Screen Shot 2018-03-10 at 1.02.43 AM.png"  transform="matrix(6.696160e-02 0 0 6.696160e-02 64.2616 56.8358)">
</image>
<line class="st3" x1="69.9" y1="82.4" x2="69.9" y2="67.1"/>
<g>
	<g>
		<path class="st1" d="M154.9,85c-0.2,0-0.9-0.3-1.6-0.6s-2.7-0.9-2.7-0.8s-0.7,0.2-1.6,0.2c0,0,0,0-0.8-0.1c-0.2,0-0.3-0.2-0.4-0.3
			c-0.2-0.1-0.3-0.3-0.5-0.3c-0.3,0-0.7,0.1-1,0c-0.3,0-0.8-0.1-1-0.3c-0.3-0.6-0.7-0.3-1-0.1c-0.1,0-0.1,0-0.1,0
			c-0.1,0-0.2,0-0.2-0.1s-0.2-0.3-0.5-0.3c0,0,0,0-0.3,0s-0.6-0.1-0.6,0.4c0,0.1-0.2,0.2-0.3,0.2c-0.5,0-0.5,0-0.5,0
			c-0.6,0-1.2,0.2-1.4,0.5c0,0,0,0-0.3-0.3c-0.3-0.2-0.3-0.2-0.3-0.2c-0.3-0.3-0.5-0.6-0.4-0.6s-0.1-0.3-0.6-0.4c0,0,0,0-0.5,0.1
			c-0.3,0.1-0.7,0.1-1.1,0.1c-0.5,0-0.5,0-0.5,0c-0.6-0.1-1.1-0.4-1.1-0.6c-0.1-0.2-0.7,0-0.6,0v0.1l-0.2,0.1c0,0-0.1,0.3-0.3,0.3
			s-0.8,0.1-0.8,0.1s0.3-0.4,0.8-0.7c0,0,0,0,0.5-0.2c0.4-0.1,0.4-0.1,0.4-0.1c0.1-0.4-0.2-0.7-0.6-0.7c0,0,0,0-0.4,0
			c-0.3,0-0.3,0-0.3,0c-0.4-0.1-0.7-0.2-0.6-0.3c0-0.1-0.1-0.2-0.3-0.2s-1.1,0.7-1.9,0.8c-0.8,0-2.7,0.8-2.6,0.9
			c0,0.1-0.2,0.4-0.7,0.3c0,0,0,0-0.4,0c-0.1,0-0.1,0-0.1,0c-0.1,0.1-0.2,0.3-0.1,0.4c0,0,0,0,0.1,0.1c0.2,0.2,0.4,0.4,0.5,0.7
			c0,0.1,0,0.1,0,0.1c-0.1,0.1-0.2,0.2-0.3,0.1c0,0,0,0-0.1-0.1c-0.2-0.2-0.3-0.4-0.5-0.5c-0.3-0.1-0.3-0.1-0.3-0.1
			c-0.4,0-0.7,0.1-0.6,0.2s0.2,0.3,0,0.2c-0.2-0.1-0.8,0-1,0.7c0,0,0,0,0.3,0c0.7,0.1,0.7,0.1,0.7,0.1c0.3,0.6,0.3,1,0.1,1
			c0,0,0,0-0.1-0.3c-0.1-0.2-0.1-0.2-0.1-0.2c-0.1-0.1-0.4-0.1-0.5,0c0,0,0,0-0.1,0.1c-0.1,0.2-0.2,0.4-0.4,0.5
			c-0.4,0.4-0.4,0.4-0.4,0.4c-0.4-0.3-0.6-0.6-0.5-0.5s0.6-0.4,0.8-1.1c0,0,0,0-0.1-0.6c0-0.2,0-0.4,0-0.6s-0.1-0.4-0.2-0.4
			c-0.2,0-0.4,0-0.5,0.1c-0.3,0.2-0.3,0.2-0.3,0.2c-0.2,0.4-0.3,0.8-0.1,1.1c0,0,0,0,0.2,0.2c0,0.1,0.1,0.2,0,0.3
			c-0.1,0.1-0.2,0.1-0.3,0.1c-0.1,0-0.2-0.1-0.3-0.2c-0.6-0.2-1.1-0.5-1.7,0.1c-0.1,0.1-0.1,0.1-0.1,0.1c-0.2,0-0.6,0.1-0.8,0.2
			s-1.4-0.1-2,0.2c0,0,0,0-0.5,0.3c-0.1,0.1-0.1,0.1-0.1,0.1c-0.2,0-0.3-0.1-0.3-0.2s0-0.3-0.1-0.4c-0.1,0-0.4,0-0.3,0.2
			c0,0,0,0,0,0.1c0,0.3,0.1,0.6-0.4,0.5c-0.2,0-0.5,0.1-0.5,0.2c-0.2,0.5-0.2,0.5-0.2,0.5c-0.4-0.1-0.7-0.2-0.7-0.1s0,0.2-0.3,0
			c-0.2-0.2-0.5-0.7-0.1-0.7c0,0,0,0,0.4,0s0.4,0,0.4,0c0.4-0.3,0.2-0.8-0.3-1.1c0,0,0,0-0.5-0.2s-0.5-0.2-0.5-0.2
			c-0.6-0.1-1.1-0.3-1-0.3c0,0,0-0.2-0.1-0.3c0,0,0,0-0.1,0c-0.4,0-0.8-0.2-1.1,0c-0.6,0.2-0.6,0.2-0.6,0.2
			c-0.6,0.3-1.4,0.8-1.8,1.2c-0.3,0.3-1.1,1.4-1,1.7c0,0,0,0-0.1,0.2c-0.1,0.1-0.1,0.1-0.1,0.1c-0.3,0-0.7,0.1-0.8,0.3
			c0,0,0,0-0.2,0.1c-0.3,0.2-0.4,0.4-0.3,0.8c0,0.1,0,0.3,0,0.4c0,0.4,0.2,0.6,0.6,0.4c0.2-0.1,0.2-0.1,0.2-0.1
			c0.2-0.2,0.5-0.1,0.6,0.2c0.1,0.3,0.6,1,0.7,0.9c0.2-0.1,0.6-0.2,0.6-0.2s0.1-0.3,0.3-0.6c0,0,0,0,0.1-0.3c0.1-0.1,0.1-0.4,0-0.5
			c-0.2-0.3-0.2-0.7,0-1c0.3-0.5,0.9-0.7,1.1-1.3c0-0.1,0.5-0.1,0.6,0c0.3,0.2,0,0.4-0.1,0.6c-0.2,0.2-0.3,0.4-0.5,0.5
			c-0.3,0.3-0.3,0.7-0.1,1.1c0.2,0.4,0.5,0.1,0.7,0c0.1,0,0.2-0.1,0.3-0.1c0.3,0,0.3,0,0.3,0c0.4,0.2,0.3,0.4-0.1,0.5c0,0,0,0-0.4,0
			s-0.6,0.1-0.3,0.5c0.1,0.1,0.1,0.1,0.1,0.1c0,0.2-0.1,0.4-0.2,0.3s-0.5,0-0.5,0.2c0,0,0,0,0,0.2c0,0.4-0.3,0.6-0.6,0.6
			c-0.3,0.1-0.6,0.1-0.9,0.2c-0.5,0.2-0.9-0.2-1.4-0.2c0,0-0.1-0.3-0.1-0.5c0-0.1,0-0.1,0-0.1c0-0.1,0-0.3,0-0.3s-0.2,0.2-0.2,0.4
			c0,0.2-0.4,0.8-0.9,0.9c0,0,0,0-0.2,0.3s-0.5,0.5-0.8,0.7c-0.5,0.3-0.5,0.3-0.5,0.3c-0.5,0.4-0.7,1-0.5,1.4c0,0,0,0,0.1,0.4
			s-0.2,0.7-0.6,0.7c-0.3,0-0.7-0.1-1-0.1c-0.2,0-0.3,0.1-0.4,0.3c0,0.4-0.1,0.7-0.1,1.1c0,0.2,0.1,0.4,0.2,0.5
			c0.5,0.4,1.4,0.4,1.8,0c0.4-0.5,0.8-1,1.2-1.5c0.2-0.4,0.4-0.6,0.8-0.5c0.1,0,0.3,0,0.4-0.1c0.3-0.2,0.6-0.1,0.8,0.2
			c0.2,0.3,0.5,0.6,0.8,0.8c0.4,0.2,0.4,0.2,0.4,0.2c0.2,0.4,0.5,0.5,0.5,0.4s-0.3-0.8-0.7-1.3c0,0,0,0-0.4-0.5
			c-0.2-0.2-0.2-0.2-0.2-0.2c0.2-0.2,0.7,0,1.1,0.3c0,0,0,0,0.3,0.4s0.6,0.8,0.9,1.2c0.1,0.1,0.2,0.3,0.3,0.3
			c0.3,0.2,0.4,0.1,0.1,0.4l0,0c0,0.1,0.3,0.1,0.5-0.1c0,0,0,0,0-0.1c0-0.2,0-0.2,0-0.2c-0.2-0.3,0-0.6,0.3-0.7c0,0,0,0,0.3,0
			c0.4,0,0.5-0.2,0.5-0.5c0-0.7,0.4-1.1,0.9-1.5c0.2-0.1,0.5-0.2,0.5,0.2c0,0.4,0,0.4,0,0.4c0.3,0,0.5-0.1,0.5-0.2s0-0.4,0.1-0.4
			c0.2-0.1,0.7-0.2,0.7-0.2s0,0.4-0.1,0.9c0,0,0,0,0.4,0.3c0.2,0.2,0.5,0.5,0.5,0.7c-0.1,0.4-0.6,0.3-0.9,0.2c-0.1,0-0.2,0-0.2-0.1
			c-0.7-0.4-1.3-0.2-1.9,0.1c-0.3,0.1-0.6,0.2-0.7,0.4c-0.3,0.4,0.2,1.1,0.7,1.1s0.5,0,0.5,0c0.6,0,0.9,0.7,0.8,1.6c0,0,0,0-0.3,0.3
			c-0.1,0.1-0.2,0.1-0.2,0.1c-0.6,0-1.1-0.1-1.7-0.2c-0.3-0.1-0.6-0.2-0.9-0.3c-0.3-0.1-0.6-0.1-0.7,0.3c-0.2,0.4-0.4,0.4-0.8,0.2
			c-0.5-0.3-1-0.5-1.5-0.8c-0.2-0.1-0.4-0.3-0.3-0.6c0.2-0.6-0.1-0.8-0.6-0.7c-0.9,0.2-1.8,0.4-2.7,0.5c-0.3,0.1-0.3,0.1-0.3,0.1
			c-0.4,0-0.9,0.2-1.2,0.5c0,0,0,0-0.2,0.3c-0.1,0.1-0.2,0.3-0.2,0.5c0,0.5-0.2,0.8-0.6,1.1c-0.7,0.8-1.4,1.5-1.3,2.7
			c0.1,0.5-0.1,0.9-0.1,1.4c0,0.2,0,0.3,0.1,0.5c0.3,0.6,0.7,1.1,0.9,1.7c0.2,0.5,1.1,1.1,1.5,1.1c0.8-0.1,1.6-0.2,2.4-0.4
			c0.4-0.1,0.7,0,1,0.3c0.1,0.1,0.3,0.2,0.4,0.2c0.5,0,0.6,0,0.6,0.6c0,0.4,0,0.7,0,1.1c0,0.2,0,0.4,0.1,0.6
			c0.2,0.4,0.4,0.8,0.7,1.2c0.4,0.7,0.5,1.4,0.1,2.1c-0.3,0.6-0.3,1.3,0,1.9c0.1,0.2,0.2,0.5,0.2,0.7c0.1,1,0.5,2,0.9,2.9
			c0.1,0.3,0.1,0.3,0.1,0.3c0,0.4,0.3,0.8,0.7,0.9c0,0,0,0,0.4,0c1.7,0,2.5-1.3,2.7-2.5c0-0.2,0.1-0.4,0.3-0.5
			c0.5-0.3,0.5-0.7,0.4-1.1c-0.2-0.5,0-0.8,0.4-1.1c0.1-0.1,0.3-0.2,0.4-0.3c0.4-0.3,0.6-0.7,0.6-1.2c0-0.4-0.1-0.8-0.2-1.3
			c-0.1-0.6-0.4-1.1,0-1.7c0.3-0.5,0.6-1,1-1.4c1.1-0.9,1.1-0.9,1.1-0.9c0.5-1.4,0.6-2.5,0.1-2.4c0,0,0,0-0.4,0.1s-0.7-0.1-0.9-0.5
			c-0.1-0.1-0.1-0.2-0.2-0.3c-0.5-0.9-1.4-1.6-1.4-2.8c0-0.1-0.1-0.2-0.1-0.3c-0.3-0.5-0.5-1-0.8-1.5c-0.1-0.2-0.1-0.2-0.1-0.2
			c-0.1-0.2,0.3-0.2,0.9,0.1c0,0,0,0,0.2,0.5c0,0.1,0,0.2,0.1,0.3c0,0.1,0.1,0.2,0.1,0.3c0.1,0.3,0.3,0.5,0.4,0.8
			c0.1,0.2,0.1,0.5,0.3,0.6c0.4,0.5,0.7,1,0.7,1.7c0,0.5,0.2,0.5,0.7,0.3c0.7-0.3,1.3-0.7,2-1c0.8-0.4,0.8-0.4,0.8-0.4
			c0.5-0.7,0.6-1.4,0.4-1.6s-0.8-0.5-0.9-0.4c0,0,0,0-0.2,0.1s-0.5,0.2-0.6-0.2c-0.2-0.5-0.5-0.9-0.7-1.3c-0.1-0.1-0.1-0.1-0.1-0.1
			c0-0.2,0.2-0.3,0.4-0.3c0,0,0,0,0.1,0s0.2,0.2,0.3,0.3c0.3,0.4,0.7,0.7,1.2,0.6c0.1,0,0.3,0,0.3,0.1c0.2,0.4,0.6,0.4,1,0.4
			c1-0.1,1-0.1,1-0.1c0.8,0.5,1.4,1,1.4,1.1s0.1,0.3,0.2,0.2s0.6,0.5,0.7,1.3c0.2,0.8,1.3,2.6,1.5,2.2c0,0,0,0,0-0.3
			c-0.1-1,0.5-1.6,1.2-2.1l0.1-0.1c0.4-0.6,0.4-0.6,0.4-0.6c0.7-0.3,1.6-0.2,1.8,0.1c0.3,0.3,0.4,1.5,0.6,1.4c0.2-0.1,0.5-0.1,0.6,0
			c0,0,0,0,0,0.1c0.4,1,0.1,2.2,0.6,3.2c0.2,0.4,0.2,0.4,0.2,0.4c0.4,0.5,0.6,0.3,0.5-0.4c0,0,0,0-0.4-0.5c-0.4-0.4-0.8-0.9-0.5-1.6
			c0.1-0.1,0.2-0.3,0.4-0.3s0.5,0.1,0.6,0.2c0.2,0.3,0.2,0.3,0.2,0.3c0.2,0.4,0.5,0.6,0.7,0.4c0,0,0,0,0.2-0.1
			c0.4-0.2,0.5-0.6,0.4-1c0-0.6-0.3-1.1-0.7-1.5c-0.3-0.4,0-1.1,0.4-1.1c0.6,0.1,1-0.3,1.5-0.4c0.8-0.1,1.2-0.7,1.6-1.2
			c0.1-0.2,0.2-0.4,0.3-0.6c0.2-0.3,0.2-0.3,0.2-0.3c-0.2-0.5-0.3-1-0.2-1.3c0,0,0,0-0.2-0.2c-0.3-0.4-0.2-0.7,0.2-1
			c0.1-0.1,0.1-0.1,0.1-0.1c0.1-0.1,0-0.2-0.4-0.2c0,0,0,0-0.3-0.1c-0.1,0-0.2-0.3-0.2-0.4c0.1-0.3,0.1-0.3,0.1-0.3
			c0.6-0.2,1.1-0.2,1-0.2c0,0.1,0.3,0.2,0.8,0c0,0,0,0,0.1,0.3c0.2,0.5,0.2,0.5,0.2,0.5c0.2,0.5,0.6,0.9,0.9,0.8c0,0,0,0-0.2-0.6
			c-0.1-0.2-0.2-0.4-0.2-0.6c0-0.1-0.1-0.3,0-0.4c0.3-0.4,0.7-0.7,1-1.1c0.1-0.1,0.2,0,0.3-0.1c0.2-0.1,0.5-0.1,0.6-0.2
			c0.5-0.6,0.9-1.2,1.3-1.9c0.2-0.4,0.2-0.9,0.3-1.4c0-0.2-0.3-0.6-0.4-0.5c-0.5,0.2-0.5,0.2-0.5,0.2c-0.4-0.3-0.2-1.1,0.4-1.6
			c0,0,0,0,0.6-0.5c0.4-0.3,0.7-0.6,1.3-0.3c0.1,0.1,0.4,0,0.5,0c0.3,0,0.6,0,0.9,0c0.3,0,0.6,0.1,0.8-0.3c0.3-0.6,0.3-0.6,0.3-0.6
			c0.7,0,1.2,0,1.2,0.1s-0.1,0.3,0,0.3c0,0,0.2-0.1,0.4-0.2s0.7-0.6,0.7-0.5c0,0,0,0.3-0.2,0.5c0,0,0,0-0.2,0.2
			c-0.5,0.5-1.1,0.9-1.6,1.4c-0.1,0.1-0.2,0.3-0.3,0.5c-0.1,0.6-0.1,0.6-0.1,0.6c0.2,0.7,0.4,1.2,0.5,1.1l0,0c0.4-0.4,0.8-0.7,1-1.2
			c0.1-0.3,0.5-0.6,0.3-1c-0.2-0.3-0.1-0.7,0.2-0.9c0.5-0.2,1-0.7,1.7-0.3c0.1,0,0.3,0,0.4-0.1c0.6-0.4,0.6-0.4,0.6-0.4
			c0.8-0.2,1.4-0.3,1.5-0.3c0,0,0-0.2-0.2-0.4c-0.1-0.2-0.3-0.7-0.1-0.7s0.7-0.5,0.8-0.5c0,0.1,0.4,0.3,0.6,0.5s1,0.2,1.1,0
			c0.1-0.1,0.7-0.5,0.7-0.5C155.7,85.1,155.2,85,154.9,85z M113.9,87.5c-0.1-0.1-0.1-0.3-0.1-0.3s0.2-0.1,0.3,0
			C114.2,87.3,114,87.7,113.9,87.5z M119.9,95.8c0,0.2,0,0.5-0.1,0.5c-0.3,0-0.6,0-0.8-0.1c-0.1-0.1-0.2-0.4-0.2-0.5
			c0.2-0.4,0.2-0.8-0.1-1.1c-0.1-0.1-0.1-0.3-0.2-0.4c-0.2-0.7,0.1-1.3,0.9-1.2c0.1,0,0.1,0,0.1,0c0.1,0.1,0.2,0.3,0.1,0.4
			c0,0,0,0-0.1,0c-0.4,0.2-0.5,0.5-0.2,0.8c0.1,0.2,0.1,0.2,0.1,0.2c0.1,0.2,0.3,0.4,0.4,0.4s0.2,0,0.2,0s0,0.1-0.1,0.1
			s-0.1,0.3,0,0.6C119.9,95.6,119.9,95.6,119.9,95.8z M121.8,93.4C121.7,93.4,121.7,93.5,121.8,93.4c-0.1,0.1-0.1,0.3-0.2,0.3l0,0
			l0,0l0,0h-0.1l-0.1-0.1l0,0c0,0,0-0.1-0.1-0.1c0-0.1,0-0.2,0-0.2c0.1-0.1,0.1-0.1,0.1-0.1c0.1-0.1,0.2-0.1,0.2-0.1h0.1l0,0l0,0
			l0,0c0.1,0,0.2,0,0.2,0.1l0,0C121.8,93.3,121.8,93.3,121.8,93.4C121.8,93.3,121.8,93.4,121.8,93.4L121.8,93.4z"/>
	</g>
</g>
<g>
	<path class="st1" d="M96.4,76.2c0.3,0,0.5,0.1,0.4,0.1c-0.1,0.1-0.4,0.3-0.4,0.3s0.4,0,0.9,0s1.8-0.1,2,0s0.3,0.4-0.4,0.4
		c-0.7,0.1-1.9,0.9-1.7,0.9c0,0,0,0,0.2,0c0.7-0.1,1.3-0.3,2-0.4c0.1,0,0.3,0.1,0.5,0.2c0.1,0,0.1,0.1,0.2,0.1
		c0.5-0.1,1.1-0.2,1.6-0.2c0.2,0,0.2,0,0.2,0c0.3,0,0.5,0,0.5,0.1c0,0-0.3,0.2-0.6,0.4c-0.4,0.1-1.3,0.6-1.2,0.6
		c0.1,0,0.3,0.2,0.2,0.4c-0.1,0.1-0.4,0.6-0.3,0.8c0.1,0.1,0.2,0.5,0.1,0.5s-0.5,0.1-0.5,0.1s0,0.1,0.1,0.2c0.1,0,0.2,0.2,0.2,0.2
		s-0.1,0.2,0.1,0.3c0.1,0.1,0.4,0.4,0.3,0.4s-0.4,0.2-0.4,0.2c0,0.1,0,0.3-0.2,0.1c0,0,0,0-0.2-0.1s-0.5-0.5-0.8,0
		c0,0.1,0,0.1,0,0.1c-0.3,0-0.5,0.1-0.4,0.2c0,0.1,0.5,0.5,0.7,0.6c0.3,0.1,0.3,0.5,0.1,0.4c-0.2-0.1-0.7,0.5-0.5,0.5
		s0.7,0.1,0.7,0.1s-0.5,0.2-1.2,0.4c0,0,0,0-0.6,0.1c-0.7,0.1-0.7,0.1-0.7,0.1c-0.5,0.4-1,0.9-1.2,1.1c0,0,0,0-0.2,0
		c-0.7,0.2-0.7,0.2-0.7,0.2c-0.4,0.8-0.8,1.6-0.9,1.8c-0.1,0.2-0.6,0.4-0.7,0.2c0,0,0,0-0.2,0c-0.7-0.2-1.1-0.8-1.3-1.5V86
		c-0.8-0.3-0.8-0.3-0.8-0.3C91.7,85.3,92,85,92,85c-0.1,0-0.2,0-0.1-0.1s0.2-0.4,0.2-0.5c0,0,0,0,0-0.1c0.4-0.5,0-0.6-0.3-0.7l0,0
		c0,0,0-0.1,0.1-0.3c0.1-0.1-0.2-0.6-0.3-0.5c0,0-0.2,0.2-0.2,0.1l0,0c0-0.5-0.4-0.9-0.6-1.3c-0.3-0.7-0.9-0.8-1.6-0.7
		c-0.3,0.1-0.6,0-0.9,0.1c-0.4,0.1-0.4,0.1-0.4,0.1c-0.3-0.3-0.5-0.5-0.3-0.6s0.5-0.2,0.5-0.2s-0.2-0.2-0.4-0.2
		c-0.2,0-0.5-0.2,0-0.2s1.1-1.2,0.9-1.2s-0.5,0-0.5,0s0.3-0.2,0.7-0.3c0,0,0,0,0.4-0.1c0.2-0.1,0.3-0.2,0.4-0.4
		c0.1-0.2,0.1-0.2,0.1-0.2c0.1,0.1,0.3,0.1,0.3,0.2c0,0,0.2,0,0.2-0.1s0.3-0.3,0.6-0.3s1-0.1,1-0.1s0.2-0.1,0.5-0.2c0,0,0,0,0.2,0
		c0.4,0,0.4,0,0.4,0c0.5,0,0.8-0.1,0.7-0.3c-0.1-0.2-0.5-0.2-0.5-0.4c0,0,0,0,0.1,0c0.4,0,0.8,0,1.2,0.1c0.3,0.1,0.3,0.1,0.3,0.1
		C95.1,76.3,96.1,76.2,96.4,76.2z"/>
</g>
<g>
	<path class="st1" d="M85.6,76.2c0.2,0,0.7,0,1.1,0c0,0,0,0,0.4,0c0.3,0,0.7-0.1,0.9,0.3c0.1,0.1,0.3,0,0.5,0c0.3,0,0.3,0,0.3,0
		c0.3,0.1,0.6,0.2,0.6,0.2s-0.3,0.2-0.6,0.4c-0.3,0.1-1.2,0.6-1.1,0.6s0.3,0.2,0.2,0.2c0,0,0,0-0.1,0c-0.3,0.2-0.6,0.4-0.9,0.5
		c-0.1,0.1-0.3,0.1-0.4,0.1C86,78.4,86,78.4,86,78.4c-0.3,0.4-0.5,0.7-0.4,0.7s0.2,0.2-0.1,0.4c-0.3,0.2-1.1,0.3-1.1,0.4
		c0,0,0.1,0.1,0.2,0.2c0.1,0,0.2,0.2-0.4,0.2s-1.8,0-1.8,0s0-0.1,0.1-0.1s0.2-0.1,0.2-0.1c0-0.1,0-0.3,0-0.3s0.2-0.3-0.1-0.6
		c0,0,0,0-0.4,0.4c-0.3,0.3-0.3,0.3-0.3,0.3c-0.4-0.3-0.6-0.5-0.5-0.6c0.1,0,0.1-0.2-0.2-0.3c0,0,0,0-0.2-0.1
		c-0.1,0-0.2-0.2-0.2-0.3c0-0.1,0.1-0.2,0.2-0.2c0.1-0.1,0.2-0.2,0.3-0.3c0.1,0,0.2-0.1,0.2-0.1c0.4,0.3,1,0.2,1.2,0.8
		c0.3,0.7,0.3,0.7,0.3,0.7c0.7-0.1,1.1-0.3,0.9-0.4s-0.8-0.4-0.8-0.4s0.4-0.1,0.8,0c0.4,0,0.8-0.7,0.2-0.6s-1.6-0.7-0.9-0.9
		c0,0,0,0,0.6-0.2c0.1,0,0.2,0,0.2-0.1c0.1-0.5,0.1-0.5,0.1-0.5C84.4,76.2,85.3,76.2,85.6,76.2z"/>
</g>
<g>
	<path class="st1" d="M140.8,112c0.5,0,0.8,0.3,0.7,0.7c-0.1,0.4,1.3,1,1.4,0.6c0.1-0.4,0.4-1.4,0.5-1.4c0,0,0.2,0.5,0.5,1.1
		c0,0,0,0,0.2,0.6c0.2,0.4,0.2,0.4,0.2,0.4c0.3,0.4,0.7,1,0.9,1.3c0,0,0,0,0.2,0.3c0.1,0.1,0.1,0.1,0.1,0.1c0.1,0.1,0.3,0.3,0.4,0.5
		s0.1,1.3,0,1.9s-0.6,2.2-0.7,2.3c0,0,0,0-0.1,0c-0.2,0.1-0.2,0.1-0.2,0.1c-0.3,0.2-0.8,0.2-1,0c0,0,0,0-0.4,0.2
		c-0.2,0.1-0.5,0-0.7-0.4c-0.1-0.3-0.3-0.6-0.4-0.9c0-0.1,0-0.1,0-0.1c-0.1,0-0.2-0.1-0.2-0.2s0-0.4,0-0.4s-0.2,0.1-0.2,0.2
		c-0.1,0.1-0.3,0.4-0.2,0.4c0,0,0-0.2-0.2-0.3c-0.1-0.1-1.2-0.4-2-0.5c0,0,0,0-0.7,0.3c-0.6,0.2-0.6,0.2-0.6,0.2
		c-0.7,0.3-1.4,0.5-1.5,0.4c-0.2-0.1-0.4-0.7-0.4-1.1c-0.1-0.5-0.6-1.7-0.5-1.7s0.3-0.1,0.2-0.3c0,0,0,0-0.1-0.1
		c-0.2-0.4-0.2-0.4-0.2-0.4c0.2-0.3,0.8-0.7,1.2-0.9c0,0,0,0,0.4-0.2c0.5-0.2,0.5-0.2,0.5-0.2c0.2-0.5,0.4-0.9,0.5-0.8
		c0.1,0,0.2-0.1,0.4-0.2c0.1-0.2,0.6-0.5,0.8-0.4C139.3,112.9,140.3,111.9,140.8,112z"/>
</g>
<g>
	<path class="st1" d="M83.2,82.8c0.2,0.1,0.3-0.1,0.3-0.4s0.8-0.3,0.9,0.1c0,0,0,0,0.5,0c0.1,0,0.3,0,0.3-0.1
		c0.3-0.3,0.7-0.2,0.9,0.1c0.3,0.4,0.3,0.4,0.3,0.4c0.4-0.1,0.7-0.1,0.7,0s0.1,0.2,0.3,0.3c0.2,0.1,0.7,0.6,0.6,0.9c0,0,0,0,0.5,0.2
		c0.4,0.1,0.4,0.1,0.4,0.1c0.4,0.2,0.8,0.5,0.8,0.5l0,0c-0.3,0.6-0.7,0.5-1.1,0c-0.1-0.1-0.1-0.1-0.1-0.1c-0.3,0.1-0.3,0.5,0,0.8
		c0,0,0,0,0.2,0.3c0.1,0.2,0.3,0.4,0,0.6c-0.1,0-0.1,0-0.1,0c0,0.2-0.6,0.1-1.3-0.1c0,0,0,0-0.6-0.5c-0.2-0.2-0.6-0.1-1-0.2
		c-0.1,0-0.1,0-0.1,0c-0.2,0-0.2,0,0-0.1s0.9-0.3,1.1-0.4s0.3-0.6,0-1c0,0,0,0-0.3-0.3c-0.1-0.1-0.2-0.2-0.4-0.3c-1-0.5-2-0.5-3-0.5
		c-0.5,0-0.7-0.3-0.8-0.7c-0.1-0.4,0.2-0.6,0.5-0.7c0.1-0.1,0.4,0,0.5,0.1s0.2,0.4,0.1,0.5C83.2,82.8,83.2,82.8,83.2,82.8z"/>
</g>
<g>
	<path class="st1" d="M135.8,106.8c0.4-0.3,0.7-0.5,0.8-0.4s0.2,0.4,0.2,0.5c-0.1,0.1-0.2,0.5-0.1,0.6c0.1,0.1-0.1,0.8-0.2,1
		c-0.1,0.2-0.5,0.8-0.7,0.9s-0.9-0.5-1.2-0.9c0,0,0,0-0.2-0.4l0,0C134.4,108,135.5,107.1,135.8,106.8z"/>
</g>
<g>
	<path class="st1" d="M75.2,82.1c0,0,0.1,0,0.2,0l0,0c0.1,0,0.3,0,0.3,0.2l0,0c0,0.1,0.1,0.1,0.1,0.1c0.5-0.2,0.9-0.3,1.2,0
		c0.1,0.1,0.3,0.1,0.4,0c0.1-0.2,0.2-0.3,0.4-0.4c0.1-0.1,0.2,0,0.2,0c0,0.3,0.1,0.5,0.2,0.7s0.3,0.3,0.6,0.5
		c0.1,0.1,0.1,0.2,0.1,0.3l-0.1,0.2c0,0-0.1,0.1-0.1,0c-0.5-0.3-1.1-0.2-1.7,0c-0.4,0.2-0.7,0.1-1.1,0c-0.2-0.1-0.2-0.5,0.1-0.5h0.3
		c0.1,0,0.1,0,0.1-0.1l0,0c0-0.1,0-0.1-0.1-0.1c-0.2,0-0.4-0.1-0.6-0.1c-0.3,0-0.5,0.1-0.7-0.3C74.7,82.3,75.1,82.3,75.2,82.1
		L75.2,82.1z"/>
</g>
<g>
	<path class="st1" d="M142.1,110.5c0.2-0.6-0.4-1.1-1.3-1.2c-0.1,0-0.1-0.1-0.1-0.1l0.1-0.2v-0.1l-0.1-0.1c-0.1-0.1,0-0.2,0.1-0.2
		c0.2,0,0.4,0.1,0.5,0.4s0.3,0.4,0.5,0.1c0.2-0.2,0.2-0.2,0.2-0.2c0.2,0.1,0.7,0.2,1,0.4c0.3,0.1,1.2,0.6,1.4,0.7s0.4,0.7,0.4,0.7
		v0.1l-0.2,0.2l0,0c-0.2-0.3-0.2-0.3-0.2-0.3c-0.3,0.1-0.7,0.2-0.8,0.3c-0.1,0.1-0.7-0.1-0.9-0.2c0,0,0,0-0.2-0.1
		C142.1,110.6,142.1,110.6,142.1,110.5z"/>
</g>
<g>
	<path class="st1" d="M118.2,112.9c0.3-0.3,0.7,0,0.7,0.4l0,0c0,0-0.1,0.3-0.2,0.8c-0.1,0.4-0.4,1.7-0.4,1.8c0,0,0,0-0.1,0.1
		s-0.3,0.2-0.5,0.3c-0.1,0-0.1,0-0.1,0c-0.1-0.2-0.2-0.5-0.2-0.7s0-0.9,0.1-1.1c0,0,0,0,0-0.2c0-0.4,0.2-0.8,0.5-1.1
		C118,113,118.1,113,118.2,112.9z"/>
</g>
<g>
	<path class="st1" d="M140.7,97.8c-0.4,0.3-0.8,0.4-0.8,0.2s-0.1-0.7,0-0.8s0.5-0.2,0.6-0.3c0.1,0,0.6-0.3,0.8-0.4c0,0,0,0,0.2-0.1
		c0.1,0,0.2-0.1,0.2-0.1c0.4,0.1,0.4,0.1,0.4,0.1c0-0.2,0-0.5,0.1-0.6s0.3-0.5,0.5-0.8c0,0,0,0,0.1,0c0.4,0.1,0.4,0.1,0.4,0.1
		c0,0.3-0.2,0.8-0.2,1.1c-0.1,0.3-0.5,1-0.7,1.1s-0.9,0.2-1,0.1c0,0-0.2-0.1-0.2,0.1l0,0C140.7,97.8,140.7,97.8,140.7,97.8z"/>
</g>
<g>
	<path class="st1" d="M112.8,78.4C112.8,78.4,112.8,78.5,112.8,78.4c-0.4,0.2-0.7,0.3-1,0.3c-0.2,0-0.2,0-0.2,0c-0.2,0-0.4,0-0.5,0
		s-0.1,0.3,0,0.3l0,0c0.1,0.1,0,0.2-0.1,0.2c-0.5,0-0.5,0.7-0.8,1h-0.1l-0.3-0.2c0,0-0.1-0.1,0-0.2s0.1-0.1,0.1-0.2c0,0,0-0.1,0-0.2
		l0,0c-0.1,0-0.1-0.1,0-0.2l0,0c0,0,0,0,0-0.1c0,0-0.5-0.1-1-0.1l0,0c-0.1,0-0.2-0.1-0.1-0.2s0.3-0.2,0.1-0.4c-0.1,0,0-0.2,0-0.2
		l0.3-0.1c0.1,0,0.1,0.1,0.1,0.1v0.1c0,0.1,0,0.1,0.1,0.1c0.3,0,0.7-0.5,1,0c0,0.1,0.2,0.1,0.2,0c0.1-0.2,0.1-0.3,0.2-0.5l0.1-0.1
		c0.2,0.1,0.3,0.1,0.5,0.2h0.1c0.3-0.5,0.7-0.1,1.1-0.1C112.8,78.3,112.8,78.4,112.8,78.4L112.8,78.4z"/>
</g>
<g>
	<path class="st1" d="M104.5,88.7c0.3-0.3,0.4-0.4,0.2-0.1l0,0c0,0.1,0,0.1,0.1,0.2h0.1c0.1,0,0.1,0.1,0.1,0.1c0,0.8,0,0.8,0,0.8
		c0.6,0.7,0.8,1.3,0.5,1.3s-1,0.5-1,0.4c0,0,0.1-0.1,0.2-0.2s0.2-0.2,0-0.3c-0.1-0.1-0.2-0.2-0.2-0.2l0,0c0.5-0.4,0.5-0.4,0.5-0.4
		C104.7,89.9,104.2,89.1,104.5,88.7z"/>
</g>
<g>
	<path class="st1" d="M131,106.7h0.1c0.2,0.1,0.4,0.2,0.5,0.3c0.4,0.5,0.4,0.5,0.4,0.5c0.4,0.5,1,1.2,1.2,1.4c0,0,0,0,0.3,0.2v0.1
		c-0.1,0.2-0.1,0.4-0.2,0.7c0,0-0.1,0.1-0.1,0C132.1,109,131.8,107.7,131,106.7C131,106.8,131,106.7,131,106.7L131,106.7z"/>
</g>
<g>
	<path class="st1" d="M123.8,80.4c0,0-0.5,0.2-1.1,0.4c0,0,0,0-0.6,0.1c-0.8,0.2-0.8,0.2-0.8,0.2c-0.5,0.7-0.9,1.3-0.9,1.3
		s0,0,0,0.1c0,0.3-0.3,0.5-0.6,0.3l0,0c-0.1-0.1-0.2-0.3,0-0.5c0.3-0.3,0.6-0.7,0.7-1.1c0-0.1,0.1-0.2,0.2-0.2
		c0.5-0.1,0.9-0.2,1.4-0.3c0.5-0.1,0.5-0.1,0.5-0.1C123.3,80.4,123.8,80.4,123.8,80.4z"/>
</g>
<g>
	<path class="st1" d="M75.1,82.1c0,0-0.3,0.1-0.7,0.2c0,0,0,0-0.3,0.2c-0.4,0.2-0.5,0.3-0.6,0.2c-0.2-0.1-0.3-0.4-0.2-0.6
		c0-0.1,0.1-0.2,0.1-0.3c0.1-0.5,0.4-0.4,0.7-0.4c1.1,0.2,1.1,0.2,1.1,0.2C75.2,81.9,75.2,82.1,75.1,82.1z"/>
</g>
<g>
	<path class="st1" d="M101.8,85.8c-0.5,0.4-1,0.4-1.4,0.3c-0.3-0.1-0.3-0.5-0.1-0.7c0.1-0.1,0.2-0.1,0.3-0.2
		c0.3-0.1,0.7-0.2,1.1-0.1c0.1,0,0.1,0,0.2,0.1C102,85.4,102,85.7,101.8,85.8z"/>
</g>
<g>
	<path class="st1" d="M84.3,80.9c0.2,0,0.2,0.3,0,0.3l0,0c-0.8,0-1.7-0.1-2.5-0.1c-0.1,0-0.2,0-0.2,0c-0.1-0.2-0.2-0.3-0.4-0.4
		c-0.2-0.1,0-0.4,0.2-0.3s0.3,0.2,0.4,0.4c0.1,0.1,0.3,0.2,0.5,0.2C83,80.9,83.6,80.9,84.3,80.9z"/>
</g>
<g>
	<path class="st1" d="M149.9,123.5c-0.2-0.1-0.3-0.2-0.2-0.4c0.1-0.1,0.5-0.6,0.6-0.8s0.5-0.6,0.6-0.6s0.3,0,0.3,0
		c0,0.1-0.1,0.5-0.3,0.7c-0.1,0.2-0.5,1-0.7,1.2C150.2,123.6,150.2,123.6,149.9,123.5C149.9,123.5,149.9,123.5,149.9,123.5z"/>
</g>
<g>
	<path class="st1" d="M86,101.8c0,0,0,0.1,0,0.2c-0.3,0.1-0.5,0.2-0.8-0.2c-0.2-0.3-0.6-0.4-1-0.6c-0.1,0-0.1,0-0.1,0.1l0,0
		c0,0.1-0.1,0.1-0.1,0.1c-0.1-0.1-0.2-0.1-0.2-0.2c-0.1,0,0-0.1,0-0.2C84.2,100.8,85.3,101.2,86,101.8z"/>
</g>
<g>
	<path class="st1" d="M142.9,93.9c0.1-0.3,0.2-0.5,0.4-0.4s0.5,0.5,0.2,0.6c-0.2,0.1-1,0.4-1.3,0.2c0,0,0,0,0.4-0.3
		C142.9,93.9,142.9,93.9,142.9,93.9z"/>
</g>
<g>
	<path class="st1" d="M91,91.9c0.5,0,0.5,0.4,0.7,0.7c0,0.1,0,0.1-0.1,0.1s-0.2,0.1-0.3,0.1c-0.1,0-0.1,0-0.1-0.1v-0.2
		c0-0.1-0.1-0.1-0.1-0.1c-0.3,0-0.7,0.3-0.8-0.1c0-0.2,0.4-0.5,0.6-0.8H91l0,0v0.1l-0.1,0.1C90.9,91.9,91,91.9,91,91.9z"/>
</g>
<g>
	<path class="st1" d="M77.4,80.5L77.4,80.5c0.2,0.2,0.2,0.4,0,0.5l-1.1,0.3c-0.1,0-0.2,0-0.3-0.2c0-0.2-0.2-0.3-0.5-0.2
		c-0.1,0-0.2,0-0.3-0.2c0-0.1,0-0.1,0-0.2s0.2-0.1,0.3-0.1c0.2,0,0.4,0.1,0.7,0.2c0.5,0.2,0.6,0.2,0.7-0.1
		C77.1,80.5,77.3,80.4,77.4,80.5z"/>
</g>
<g>
	<path class="st1" d="M137.8,109.8C137.8,109.7,137.8,109.7,137.8,109.8c-0.1-0.2-0.1-0.2-0.2-0.2s-0.2,0.1-0.2,0.2l0,0
		c0,0.1-0.1,0.1-0.2,0c-0.2-0.5-0.2-0.5-0.2-0.5c0.2-0.6,0.4-1.1,0.6-1.1c0.2-0.1,0.4-0.2,0-0.2c0,0,0,0-0.2,0.5
		c0,0.1,0,0.1,0.1,0.1s0.2,0,0.2,0c0.1,0,0.1,0.2,0,0.2l0,0l-0.1,0.1c0.1,0.3,0.5,0.6,0.4,0.9C138,109.9,137.8,109.9,137.8,109.8z"
		/>
</g>
<g class="st4">
	<path class="st5" d="M152.1,121.2c-0.1,0.2-0.3,0.2-0.4,0.1c-0.1-0.1-0.3-0.6-0.3-0.9s-0.1-0.8,0.1-0.6
		C151.8,120,152.2,121,152.1,121.2z"/>
</g>
<g>
	<path class="st1" d="M131.9,78.5c0,0,0,0.1,0,0.3c0,0.1-0.3,0.5-0.6,0.4s-0.9-0.5-0.7-0.6c0.3-0.1,0.9,0.2,0.9,0.1
		C131.6,78.6,131.8,78.5,131.9,78.5z"/>
</g>
<g>
	<path class="st1" d="M79.9,82.7c-0.1,0-0.3,0-0.4-0.2c-0.2-0.1-0.2-0.4-0.1-0.6c0,0,0-0.1,0.1-0.1c0.2-0.3,0.6-0.2,0.7,0.2v0.2
		C80.3,82.4,80.2,82.7,79.9,82.7z"/>
</g>
<g>
	<path class="st1" d="M103.2,91L103.2,91c0.1-0.4,0.3-0.8,0.5-1.1c0-0.1,0.2-0.1,0.3-0.1c0.1,0,0.3,0.2,0.2,0.2
		c-0.1,0.3-0.2,0.5-0.4,0.7c-0.1,0.1-0.3,0.2-0.5,0.2C103.2,91,103.2,91,103.2,91L103.2,91z"/>
</g>
<g>
	<path class="st1" d="M138.5,104.5c0,0-0.1-0.1-0.3-0.2c-0.1-0.1-0.7-0.9-1-1.4c0,0,0,0,0.3-0.3c0.1-0.1,0.2-0.1,0.3,0
		s0.1,0.2,0.1,0.3c0,0.2,0,0.2,0,0.2c-0.1,0.2-0.1,0.5,0.1,0.7C138.1,103.9,138.5,104.5,138.5,104.5z"/>
</g>
<g>
	<path class="st1" d="M143.6,91.6c0,0.2,0.1,0.5,0,0.7c0,0.2-0.2,0.7-0.2,0.6c-0.1,0-0.2-1-0.2-1.2s0-0.9,0-1.1s0.1-0.7,0.1-0.7
		s0.1,0.2,0.1,0.3C143.4,90.5,143.5,91.4,143.6,91.6z"/>
</g>
<g>
	<path class="st1" d="M119.3,78.6c0,0-0.1,0-0.2-0.1s-0.2-0.4,0.2-0.4c0.4,0,1.3,0,1.3,0.1c0,0-0.1,0.1-0.3,0.2c0,0,0,0-0.2,0
		s-0.3,0-0.5,0s-0.2,0-0.2,0c-0.2,0-0.3-0.1-0.3,0s0,0.1,0.1,0.1C119.3,78.4,119.4,78.6,119.3,78.6z"/>
</g>
<g>
	<path class="st1" d="M133.9,110.3c0.5,0.1,1,0,1.5,0.3c0.1,0.1,0,0.2-0.1,0.2c-0.5-0.1-1-0.1-1.4-0.3
		C133.8,110.4,133.8,110.3,133.9,110.3z"/>
</g>
<g>
	<path class="st1" d="M81.7,81.7c-0.2,0.2-0.4,0.4-0.7,0.7c-0.1,0.1-0.2,0-0.2-0.1c0-0.2-0.1-0.5,0-0.5c0.2-0.2,0.5-0.2,0.7-0.2
		C81.6,81.6,81.6,81.6,81.7,81.7L81.7,81.7C81.8,81.6,81.8,81.7,81.7,81.7z"/>
</g>
<g>
	<path class="st1" d="M143.8,121.5c0,0,0.2,0,0.3,0s0.5,0.1,0.6,0.1c0,0,0,0.2-0.1,0.3s-0.4,0.3-0.5,0.2
		C144,121.9,143.8,121.6,143.8,121.5z"/>
</g>
<g>
	<path class="st1" d="M80.9,83.9C80.9,83.9,80.9,84,80.9,83.9c-0.2,0.2-0.3,0.2-0.3,0.1l0,0c0-0.1-0.1-0.1-0.2-0.1
		c-0.2,0.1-0.4,0.2-0.6-0.1c0-0.1,0-0.1,0-0.2c0.3-0.2,0.7,0.1,1,0.1C80.8,83.7,80.9,83.8,80.9,83.9z"/>
</g>
<g>
	<path class="st1" d="M137.9,105.8c0.3-0.1,0.5-0.2,0.8-0.3c0,0,0.1,0,0.1,0.1c0.1,0.3,0.1,0.6-0.2,0.8h-0.1
		c-0.2-0.1-0.2-0.5-0.5-0.3c-0.1,0-0.1,0-0.2-0.1l0,0C137.9,105.8,137.9,105.8,137.9,105.8z"/>
</g>
<g>
	<path class="st1" d="M142.7,80.6c0.2,0.1,0.5,0.2,0.5,0.2s-0.2,0.2-0.5,0.3c0,0,0,0-0.2,0c-0.1,0-0.3,0-0.4-0.1v-0.3
		c0.1-0.1,0.2-0.1,0.4-0.1S142.7,80.6,142.7,80.6z"/>
</g>
<g>
	<path class="st1" d="M133.2,79.3c-0.3,0.1-0.5,0.1-0.8,0.2c-0.1,0-0.2-0.1-0.1-0.2c0.3-0.5,0.6-0.6,1-0.2
		C133.3,79.1,133.3,79.3,133.2,79.3z"/>
</g>
<g>
	<path class="st1" d="M87,126.5c0.1-0.2,0.2-0.3,0.4-0.6c0,0,0,0,0.1,0c0.2,0.2,0.2,0.2,0.2,0.2c0.2,0.2,0.3,0.4,0.3,0.4
		s-0.4,0.2-0.7,0.1C87.3,126.6,87.3,126.6,87,126.5C87,126.6,87,126.5,87,126.5z"/>
</g>
<g>
	<path class="st1" d="M130.2,78.1c0,0,0.2-0.2,0.4-0.3c0.2-0.1,0.6,0.4,0.4,0.4C130.8,78.2,130.2,78.2,130.2,78.1z"/>
</g>
<g>
	<path class="st1" d="M79.3,79.5c-0.4-0.2-0.7-0.4-1.1-0.6c-0.1,0,0-0.1,0-0.1C78.8,78.8,79.2,79,79.3,79.5
		C79.4,79.5,79.4,79.6,79.3,79.5z"/>
</g>
<g>
	<path class="st1" d="M79.2,80.7c-0.1-0.1,0-0.3,0.4-0.4c0,0,0,0,0.2,0.3c0,0.1,0,0.1,0,0.1C79.7,80.9,79.3,80.8,79.2,80.7z"/>
</g>
<g>
	<path class="st1" d="M73.8,80.6c0,0,0.2-0.2,0.4-0.3c0.2-0.1,0.9-0.4,0.9-0.4s-0.1,0.2-0.4,0.4C74.5,80.4,73.8,80.6,73.8,80.6z"/>
</g>
<g>
	<path class="st1" d="M138.3,111.4c0,0,0.1-0.2,0.2-0.4c0.1-0.2,0.7-0.3,0.7-0.2s-0.1,0.2-0.3,0.3
		C138.7,111.2,138.3,111.4,138.3,111.4z"/>
</g>
<g>
	<path class="st1" d="M87.4,102.5c-0.3,0-0.6,0-0.8,0.1c-0.1,0-0.1-0.1-0.1-0.1C86.7,102.2,87,102.2,87.4,102.5
		C87.5,102.4,87.5,102.5,87.4,102.5z"/>
</g>
<g>
	<path class="st1" d="M118.6,77.8c0,0,0,0.1-0.1,0.2s0.2,0.4,0.2,0.4s-0.2,0-0.3-0.1c-0.1-0.1-0.5-0.3-0.5-0.3s0.1-0.1,0.2-0.2
		C118.2,77.8,118.6,77.8,118.6,77.8z"/>
</g>
<g>
	<path class="st1" d="M145.7,109.6c0,0,0,0.1-0.1,0.2s-0.4,0.3-0.4,0.3s-0.2-0.1-0.2-0.2c0,0,0,0,0.1,0c0.2-0.1,0.2-0.1,0.2-0.1
		C145.5,109.6,145.7,109.5,145.7,109.6z"/>
</g>
<g>
	<path class="st1" d="M127,105.6c0,0.1,0,0.3,0,0.4s0,0.2-0.1,0.2l0,0c-0.1,0-0.2,0-0.2-0.1s0-0.3,0-0.4s0-0.2,0.1-0.2l0,0
		C126.9,105.5,127,105.6,127,105.6z"/>
</g>
<g>
	<path class="st1" d="M76.9,79.4c0,0-0.1,0.1-0.2,0.2s-0.5,0.3-0.5,0.3s0-0.1,0.1-0.2s0.2-0.2,0.2-0.3c0,0-0.2-0.1,0-0.1L76.9,79.4z
		"/>
</g>
<g>
	<path class="st1" d="M85.4,82c0,0-0.2,0.1-0.4,0.1c0,0,0,0-0.2,0c-0.1,0-0.1,0-0.1,0c-0.1-0.1-0.1-0.3,0-0.4c0,0,0,0,0.1,0
		c0.2,0,0.2,0,0.2,0C85.2,81.8,85.4,81.9,85.4,82z"/>
</g>
<line class="st3" x1="70.3" y1="133.6" x2="70.3" y2="88"/>
<line class="st3" x1="161.2" y1="135.3" x2="161.2" y2="94.4"/>
<line class="st3" x1="197.1" y1="133.1" x2="197.1" y2="110.9"/>
<ellipse transform="matrix(0.9998 -2.217370e-02 2.217370e-02 0.9998 -2.9852 1.5922)" class="st6" cx="70.3" cy="135.4" rx="1.4" ry="1.4"/>
<g>
	<g>
		<path class="st1" d="M96.2,110c-0.4-0.4-0.8-0.8-1.5-0.8c-0.3,0-0.7-0.2-1-0.4c-0.3-0.2-0.6-0.4-0.9,0c-0.2,0.2-0.4,0.3-0.7,0.1
			l0,0v-0.1c0,0-0.1-0.2-0.2-0.1s-0.1,0-0.1,0s0-0.3,0.2-0.6c0,0,0,0,0.2-0.2l0,0c-0.1-0.1-0.2-0.2-0.2-0.3c-0.1-0.7-0.6-1-1.3-1.1
			c-0.2,0-0.4-0.2-0.6-0.3c-0.3-0.3-0.6-0.7-0.9-1c-0.1-0.1-0.2-0.1-0.3-0.2c-0.6-0.1-1.2-0.2-1.8-0.3l0,0c0,0.1-0.2,0.3-0.2,0.5
			c0,0,0,0-0.1,0c-0.4-0.2-0.1-0.5-0.1-0.8c0,0,0-0.1-0.1,0c-0.5,0.4-0.8,0.8-1.2,1.1c0,0,0,0-0.1,0c-0.2-0.2-0.6-0.3-1-0.2
			c-0.1,0-0.3-0.1-0.4-0.2c-0.4-0.3-0.3-0.7-0.3-1.1c0.1-0.6,0-0.7-0.6-0.8c-0.2,0-0.4,0-0.6-0.1l0,0c0.1-0.6,0.2-1.1,0.3-1.6l0,0
			c-0.7,0-0.8,0.1-0.9,0.6c-0.1,0.2-0.2,0.3-0.4,0.4c-0.6,0.2-1,0-1.2-0.5c-0.2-0.4-0.3-0.9-0.3-1.3s0-0.9,0.3-1.2
			c0.3-0.4,0.7-0.6,1.3-0.4c0.2,0.1,0.5,0.1,0.7,0.2l0,0c-0.1-0.4,0.1-0.5,0.4-0.5c0.9,0,1.1,0.1,1.4,1c0.1,0.2,0.2,0.4,0.4,0.6l0,0
			h0.1h0.1l0,0c0-0.1,0-0.2,0-0.3c-0.5-1.1-0.3-2,0.6-2.8c0.1-0.1,0.1-0.2,0.2-0.2c0.1-0.2,0.1-0.5,0.2-0.7c0-0.2,0-0.4,0-0.7l0,0
			c0,0,0.1,0.1,0.2,0.1c0.1,0.1,0.1,0.1,0.2,0.1l0,0c0.2-0.5,0.5-1,1.1-1l0,0c0.1-0.3,0-0.6,0.2-0.7c0.4-0.4,1-0.5,1.6-0.7
			c0,0,0.1,0,0,0.1s-0.2,0.3-0.3,0.4l0,0c0,0,0,0,0.1,0.1s0.2,0,0.3-0.1c0.1-0.1,0.9-0.7,0.9-0.7l0,0l0,0c-0.2,0.1-0.4,0.2-0.6,0.4
			l0,0c-0.3-0.2-0.6-0.5-0.9-0.7c0,0,0,0,0-0.1c0.2-0.1,0.3-0.2,0.5-0.3v-0.1c-0.6-0.2-1,0.3-1.5,0.5c0,0-0.1,0,0-0.1
			c0.4-0.7,1-1,1.7-1c0.6-0.1,1.2-0.2,1.7-0.3c0.4-0.1,0.3-0.4,0.2-0.6c0-0.1-0.3-0.2-0.5-0.2c-0.1,0-0.1,0-0.1,0
			c-0.1,0-0.2,0-0.3,0c0,0,0-0.2,0.2-0.3c0,0,0,0,0.1-0.1v-0.1c-1-0.3-1.3-1.1-1.5-1.8l0,0c-0.5,0.1-0.9,0.4-1.3,0.3
			s-0.3-0.5-0.2-0.8l0,0c-0.3-0.2-0.5-0.4-0.8-0.5s-0.7-0.2-1.1-0.1c-0.1,0-0.1,0.5-0.2,0.8c-0.2,0.5-0.1,1,0.1,1.5c0,0,0,0.1,0,0.2
			c-0.1,0.6-0.3,1.2-0.4,1.8c-0.1,0.3-0.3,0.4-0.5,0.2c-0.5-0.3-0.7-0.8-0.5-1.4l0,0c-1-0.3-2-0.5-2.5-1.4c0,0-0.1,0-0.1-0.1
			c-0.5-0.2-0.6-0.5-0.3-0.8c0.5-0.5,0.6-1.4,1.6-1.5c0.1,0,0.2-0.1,0.3-0.2l0,0c0,0-0.1-0.1-0.3-0.2c-0.1-0.1-0.3-0.1-0.3-0.1
			s0,0,0-0.1s0-0.1,0-0.1l0,0c0.3,0,0.6,0,0.7,0.1c0.1,0.2,0.1,0.6,0.1,1l0,0c0.1,0,0.3,0.1,0.3,0.1c0.2-0.3,0.2-0.3,0.2-0.3
			c0.3,0,0.5,0,0.5,0s-0.3-0.4-0.7-0.7c0,0,0,0-0.4-0.3v-0.1c0.5-0.2,0.8-0.3,1.2-0.4c0,0,0,0,0-0.1c-0.1-0.2-0.2-0.4-0.2-0.5
			c-0.1-0.6-0.2-0.6-0.6-0.6l0,0C83.3,84,83.3,84,83.3,84c-0.2,0.3-0.3,0.5-0.4,0.5s-0.3-0.3-0.4-0.6c0,0,0,0-0.1-0.3c0,0,0,0-0.1,0
			c-0.2,0.2-0.3,0.3-0.5,0.4h-0.1c-0.2-0.4-0.3-0.7-0.4-1c-0.1-0.2-0.3-0.3-0.5-0.3c-0.1,0-0.3,0.2-0.3,0.4c0,0.1,0.2,0.3,0.3,0.4
			l0.1,0.1l0,0c-0.1,0.2-0.2,0.4-0.3,0.6l0,0c-0.3,0-0.6-0.1-0.8,0c-0.6,0.2-1.2,0.2-1.8-0.2c-0.2-0.1-0.5-0.1-0.8-0.1l0,0
			c0,0,0,0,0,0.1c0,0,0,0,0,0.1l0.1,0.1c0.1,0,0.1,0.1,0.1,0.1l0,0c-0.1,0.2-0.1,0.2-0.1,0.2c-0.1,0.2-0.1,0.3-0.2,0.3
			c0,0-0.7-0.1-1.3-0.3c0,0,0,0-0.6-0.2l0,0c0,0,0-0.1,0.1-0.2c0-0.1,0.1-0.2,0.1-0.2l0,0c-0.1,0-0.1-0.1-0.2-0.1
			c-0.8-0.1-1.6,0-2.3-0.3c-0.7-0.2-1.1,0.1-1.6,0.3c-0.1,0.1-0.1,0.1-0.1,0.1c-0.2,0-0.3,0-0.3,0s0-0.1,0.1-0.2s0.2-0.2,0.2-0.2
			s-0.2,0-0.4,0.1s-0.3,0.1-0.4,0.1c0,0,0,0.2,0,0.3c0,0.1,0,0.3,0,0.3s-0.2,0-0.3-0.1c0,0,0,0,0-0.1c-0.1-0.1-0.2-0.3-0.3-0.3
			c-1.1-0.2-2.1-0.5-3.2-0.7c-0.4-0.1-0.8-0.2-1.2-0.2c-0.4-0.1-0.8-0.2-1.1,0c-0.7,0.3-1.4,0.7-2.2,1.1v0.1
			c0.5,0.3,0.9,0.6,1.4,0.9v0.1c-0.2,0.1-0.4,0.2-0.6,0.1c-0.4-0.2-0.7-0.1-1.1,0.2c0,0,0,0,0,0.1c0.3,0.2,0.5,0.4,0.7,0.5
			c0.3,0.1,0.6-0.1,0.8-0.1l0,0c0.1,0.4-0.1,0.6-0.6,0.8c-0.2,0.1-0.5,0.3-0.5,0.5s0.2,0.6,0.3,0.7c0.5,0.3,1.1,0.5,1.8,0.7l0,0
			c-0.1,0.5-0.5,0.7-1,1v0.1c0.9-0.4,1.8-0.9,2.2-1.9c0.1-0.3,0.3-0.4,0.5-0.3l0,0c0,0,0,0.2-0.1,0.3c-0.1,0.2-0.1,0.3-0.1,0.3
			s0,0,0.1,0.1H66l0,0c0.1-0.2,0.3-0.3,0.4-0.5c0.1-0.3,0.3-0.3,0.6-0.2c0.4,0.2,0.7,0.3,1.1,0.4c0.9,0.3,1.9,0.2,2.5,1.2
			c0,0.1,0.2,0.2,0.3,0.2c0.4,0.1,0.4,0.5,0.5,0.8s0.2,0.6,0.4,0.8c0.1,0.2,0.2,0.3,0.3,0.4l0,0c0.4,0.3,0.8,0.6,1.1,1
			c0.1,0.1,0.1,0.3,0.1,0.4c0,0-0.2,0.1-0.4,0.1l0,0c0,0.7,0,1.5,0,2.2c0,0.3,0.2,0.6,0.3,0.9c0.1,0.2,0.2,0.4,0.4,0.6
			c0.2,0.3,0.4,0.6,0.6,0.8c0.7,0.5,1,1.2,1.2,1.9c0.2,0.6,0.6,1,0.9,1.5c0,0.1,0.1,0.1,0.3,0.2c0,0,0.1,0,0-0.1
			c-0.5-0.9-1.1-1.6-1.2-2.5l0,0c0.2,0,0.3,0.1,0.4,0.2c0.3,0.4,0.6,0.8,0.8,1.3c0.3,0.7,1.2,1.2,1.1,2.1c0,0.1,0.1,0.2,0.2,0.2
			c0.8,0.4,1.5,1.1,2.5,1c0.1,0,0.2,0.1,0.4,0.1c0.5,0.2,1,0.5,1.5,0.8c0.2,0.1,0.5,0.3,0.5,0.5c0.2,0.6,0.7,0.8,1.2,1
			c0.1,0,0.3,0,0.3,0c0.3-0.2,0.4-0.1,0.5,0.1c0.3,0.6,0.3,1.1,0,1.7c-0.2,0.2-0.3,0.5-0.5,0.8c-0.2,0.4-0.4,0.7,0,1.1
			c0,0,0,0,0,0.1c-0.1,0.1-0.2,0.2-0.3,0.2l0,0c0.2,0.5,0.5,0.9,0.6,1.4c0.3,1.1,0.9,2.1,1.9,2.8c0.2,0.1,0.3,0.4,0.3,0.7
			c0,1.1-0.1,2.2-0.2,3.4c-0.1,0.7-0.3,1.3-0.4,2s-0.1,1.4-0.2,2.1c0,0.5,0,1,0,1.4l0,0c0,0-0.1,0-0.2,0s-0.2,0-0.2,0l0,0
			c0,0.1,0.1,0.1,0.2,0.2c0.1,0.2,0.3,0.3,0.4,0.5l0,0c-0.5,0.4-0.2,0.9-0.3,1.2c0,0,0,0,0,0.1c0.3,0.2,0.5,0.4,0.8,0.7
			c0,0,0,0,0.1,0c0.4-0.7,0.8-1.4,1.3-2.1l0,0c-0.5-0.5-0.5-0.5,0-1.1c0.1-0.1,0.1-0.2,0.1-0.3c0.1-0.2,0.2-0.3,0.3-0.5l0,0
			c0-0.1,0-0.1,0-0.1c-0.1-0.2-0.1-0.3-0.1-0.3h0.1l0,0c0.2-0.2,0.4-0.5,0.7-0.7c0.1-0.1,0.3-0.2,0.4-0.2c0.2-0.1,0.4-0.1,0.5-0.1
			c0.5-0.2,0.6-0.4,0.3-0.9c-0.1-0.1-0.2-0.2-0.2-0.4v-0.1c0.3,0,0.7,0.1,0.9,0c0.7-0.3,1.4-1.8,1.4-2.6c0-0.1,0.1-0.3,0.2-0.4
			c0.5-0.3,1.1-0.6,1.6-0.9c0.2-0.1,0.4-0.2,0.4-0.4c0.2-0.6,0.4-1.3,0.4-2c0.1-0.5,0.1-0.9,0.5-1.3c0.3-0.3,0.4-0.7,0.6-1
			C96.4,110.4,96.4,110.1,96.2,110z M82.3,92.1C82.4,92.1,82.4,92.1,82.3,92.1c0.2,0,0.3,0.1,0.3,0.1s0.3,0.2,0.5,0.3
			c0,0,0,0,0.2,0.3c0.1,0.2,0.4,0.3,0.6,0.4l0,0c0,0,0,0,0.1,0l0,0l0,0l0,0c0,0,0,0,0.1,0l0,0c0.1,0,0.1,0,0.2,0
			c0.2,0,0.2,0.2,0.2,0.4l0,0c0,0-0.1,0.2-0.1,0.4c0,0,0,0-0.1,0.1c-0.2,0.1-0.4,0-0.5-0.2c0-0.1-0.1-0.2-0.1-0.3
			c-0.1-0.1-0.2-0.2-0.4-0.3l0,0c0,0-0.1,0-0.2,0.1c0,0,0,0,0,0.1c-0.1,0.3-0.2,0.6-0.3,0.9h-0.1c-0.2-0.7-0.2-0.8,0.5-1.3V93
			c-0.5-0.1-0.9-0.2-1.3-0.3l0,0c0,0,0,0-0.1-0.1l0,0C81.9,92.4,82.1,92.1,82.3,92.1z"/>
	</g>
</g>
<ellipse class="st6" cx="69.9" cy="83.8" rx="1.4" ry="1.4"/>
<line class="st3" x1="160.7" y1="94.9" x2="180" y2="94.9"/>
<ellipse transform="matrix(0.9998 -2.217374e-02 2.217374e-02 0.9998 -2.0599 4.0237)" class="st6" cx="180.4" cy="94.9" rx="1.4" ry="1.4"/>
<g>
	<g>
		<circle class="st2" cx="197.8" cy="169.8" r="37.2"/>
		<g>
			<g>
				<g>
					<g>
						<g>
							<path class="st7" d="M219.7,173.2c-0.8,5.1-3.4,9.8-7.3,13.3l19.8,22.5c4.5-4,8.4-8.8,11.3-14.1c2.9-5.3,4.9-11.2,5.8-17.1
								L219.7,173.2z"/>
						</g>
						<path class="st8" d="M227.7,193.5l-2.4-1.9l-1.5,1.7c-0.5,0.6-1.1,1.1-1.6,1.6l2.1,2.2c0.6-0.6,1.2-1.1,1.7-1.8L227.7,193.5z"
							/>
						<path class="st8" d="M232.4,186l-2.7-1.3c-0.3,0.7-0.7,1.3-1,2c-0.4,0.7-0.7,1.4-1.1,2l2.5,1.6c0.5-0.7,0.8-1.4,1.2-2.1
							C231.6,187.4,232.1,186.7,232.4,186z"/>
						<path class="st8" d="M235.1,177.6l-2.9-0.6c-0.2,0.7-0.2,1.5-0.5,2.2l-0.7,2.2l2.8,1l0.7-2.4
							C234.9,179.2,234.9,178.4,235.1,177.6z"/>
					</g>
				</g>
				<g>
					<g>
						<g>
							<path class="st7" d="M212.4,186.4c-3.9,3.4-9,5.4-14.1,5.5l0.6,30c12.2-0.3,24.2-4.9,33.2-12.9L212.4,186.4z"/>
						</g>
						<path class="st8" d="M205.5,207.2l-0.6-2.9c-0.7,0.1-1.5,0.3-2.2,0.4l-2.3,0.2l0.2,3l2.5-0.2
							C203.9,207.6,204.7,207.4,205.5,207.2z"/>
						<path class="st8" d="M213.9,204.5l-1.3-2.7c-1.4,0.5-2.8,1.3-4.3,1.6l0.9,2.9C210.9,205.8,212.4,205.1,213.9,204.5z"/>
						<path class="st8" d="M221.4,199.8l-1.9-2.4l-0.9,0.7c-0.3,0.2-0.6,0.4-0.9,0.6l-1.9,1.3l1.5,2.6l2.1-1.4
							c0.3-0.2,0.7-0.5,1-0.7L221.4,199.8z"/>
					</g>
				</g>
				<g>
					<g>
						<g>
							<path class="st7" d="M198.3,191.9c-0.6,0-1.3,0.1-1.9,0c-0.6-0.1-1.3-0.1-1.9-0.2c-0.6-0.2-1.3-0.3-1.9-0.4
								c-0.6-0.1-1.2-0.4-1.9-0.6c-2.4-0.8-4.7-2.1-6.7-3.7l-18.8,23.4c4.7,3.8,10.2,6.8,15.9,8.7c1.5,0.4,2.9,1,4.4,1.3
								c1.5,0.3,3,0.6,4.4,0.9c1.5,0.2,3,0.3,4.5,0.5c1.5,0.1,3,0.1,4.5,0.1L198.3,191.9z"/>
						</g>
						<path class="st8" d="M179.6,203.4l1.4-2.6c-0.7-0.4-1.3-0.7-2-1.1l-1.9-1.3l-1.8,2.4l2,1.4C178.2,202.7,178.9,203,179.6,203.4
							z"/>
						<path class="st8" d="M187.9,206.7l0.8-2.9l-2.2-0.7c-0.4-0.1-0.7-0.2-1.1-0.4l-1-0.4l-1.1,2.8l1.1,0.5
							c0.4,0.2,0.8,0.3,1.2,0.4L187.9,206.7z"/>
						<path class="st8" d="M196.6,208l0.1-3c-0.8,0-1.5-0.1-2.3-0.2c-0.8-0.1-1.5-0.1-2.3-0.3l-0.5,3c0.8,0.1,1.6,0.2,2.5,0.3
							C194.9,207.9,195.8,208,196.6,208z"/>
					</g>
				</g>
				<g>
					<g>
						<g>
							<path class="st7" d="M183.9,187.1c-4.1-3.2-6.9-7.9-7.9-13l-29.4,5.9c1.2,6,3.4,11.7,6.6,16.9c3.1,5.2,7.2,9.8,11.9,13.6
								L183.9,187.1z"/>
						</g>
						<polygon class="st8" points="162.3,183.9 165.1,182.8 164.6,181.7 164.3,180.7 163.6,178.5 160.7,179.2 161.4,181.6 
							161.8,182.8 						"/>
						<path class="st8" d="M166.5,191.7l2.5-1.7l-1.3-1.9c-0.4-0.6-0.7-1.3-1.1-2l-2.7,1.4c0.4,0.7,0.8,1.5,1.2,2.2L166.5,191.7z"/>
						<path class="st8" d="M172.3,198.3l2-2.2c-0.6-0.5-1.1-1.1-1.6-1.6c-0.5-0.6-1.1-1-1.6-1.7l-2.3,2c0.5,0.7,1.1,1.2,1.7,1.8
							C171.1,197.2,171.7,197.8,172.3,198.3z"/>
					</g>
				</g>
				<g>
					<g>
						<g>
							<path class="st7" d="M176.1,174.1c-0.5-2.5-0.6-5.1-0.2-7.7c0.4-2.6,1.3-5,2.5-7.3L152,144.8c-2.9,5.3-4.9,11.2-5.8,17.1
								c-0.9,6-0.8,12.1,0.4,18.1L176.1,174.1z"/>
						</g>
						<path class="st8" d="M161.5,157.8l2.8,0.9l0.3-1.1c0.1-0.4,0.3-0.7,0.4-1.1l0.9-2.1l-2.7-1.3l-1,2.3c-0.2,0.4-0.3,0.8-0.5,1.1
							L161.5,157.8z"/>
						<polygon class="st8" points="159.7,166.5 162.7,166.7 162.9,164.5 163.4,162.2 160.5,161.6 160,164 						"/>
						<path class="st8" d="M159.9,175.3l3-0.4l-0.2-2.3c0-0.4-0.1-0.8-0.1-1.1l0-1.1l-3,0l0,1.2c0,0.4,0.1,0.8,0.1,1.2L159.9,175.3z
							"/>
					</g>
				</g>
				<g>
					<g>
						<g>
							<path class="st7" d="M178.3,159.2c2.4-4.5,6.6-8.2,11.4-10l-10.9-27.9c-5.6,2.2-10.9,5.4-15.5,9.4c-4.5,4-8.4,8.8-11.3,14.1
								L178.3,159.2z"/>
						</g>
						<path class="st8" d="M177.7,137.3l1.6,2.6c0.6-0.4,1.3-0.7,2-1.1c0.7-0.3,1.3-0.8,2-1l-1.2-2.7c-0.8,0.3-1.5,0.7-2.2,1.1
							C179.1,136.5,178.4,136.8,177.7,137.3z"/>
						<path class="st8" d="M170.8,142.8l2.1,2.1c0.6-0.5,1.1-1.1,1.6-1.6l1.8-1.4l-1.8-2.4l-1.9,1.6
							C171.9,141.6,171.4,142.2,170.8,142.8z"/>
						<path class="st8" d="M165.2,149.7l2.6,1.6l1.3-1.9c0.2-0.3,0.4-0.6,0.6-0.9l0.7-0.9l-2.3-1.9l-0.8,0.9c-0.2,0.3-0.5,0.7-0.7,1
							L165.2,149.7z"/>
					</g>
				</g>
				<g>
					<g>
						<g>
							<path class="st7" d="M189.7,149.2c2.4-0.9,4.9-1.4,7.5-1.5c0.6,0,1.3-0.1,1.9,0c0.6,0.1,1.3,0.1,1.9,0.2
								c0.6,0.2,1.3,0.3,1.9,0.4c0.6,0.1,1.2,0.4,1.9,0.6l9.6-28.4c-1.5-0.4-2.9-1-4.4-1.3c-1.5-0.3-3-0.6-4.4-0.9
								c-1.5-0.2-3-0.3-4.5-0.5c-1.5-0.1-3-0.1-4.5-0.1c-6.1,0.1-12.1,1.3-17.8,3.5L189.7,149.2z"/>
						</g>
						<path class="st8" d="M203.3,132l-0.4,3c0.8,0.1,1.5,0.3,2.2,0.4c0.7,0.2,1.5,0.3,2.2,0.5l0.8-2.9c-0.8-0.3-1.6-0.4-2.4-0.6
							C204.9,132.3,204.1,132.1,203.3,132z"/>
						<path class="st8" d="M194.4,131.8l0.3,3l1.1-0.1c0.4,0,0.8,0,1.1,0l2.3,0l0.1-3l-2.5,0c-0.4,0-0.8,0-1.2,0L194.4,131.8z"/>
						<path class="st8" d="M185.8,133.5l0.9,2.8l2.2-0.7c0.7-0.2,1.5-0.3,2.2-0.5l-0.6-2.9c-0.8,0.2-1.6,0.3-2.4,0.5L185.8,133.5z"
							/>
					</g>
				</g>
				<g>
					<g>
						<g>
							<path class="st7" d="M204.9,148.9c4.8,1.6,9.1,5,11.8,9.5l25.6-15.6c-6.3-10.4-16.3-18.4-27.9-22.3L204.9,148.9z"/>
						</g>
						<path class="st8" d="M226.3,144.4l-2.2,2l1.4,1.8c0.2,0.3,0.5,0.6,0.7,0.9l0.6,1l2.5-1.7l-0.7-1c-0.2-0.3-0.5-0.6-0.8-1
							L226.3,144.4z"/>
						<path class="st8" d="M219.7,138.5l-1.7,2.5c1.3,0.8,2.4,1.9,3.6,2.8l2-2.2C222.3,140.6,221.1,139.4,219.7,138.5z"/>
						<path class="st8" d="M211.9,134.3l-1.1,2.8l2.1,0.9c0.7,0.3,1.3,0.7,2,1.1l1.5-2.6c-0.7-0.4-1.4-0.8-2.2-1.2L211.9,134.3z"/>
					</g>
				</g>
				<g>
					<g>
						<g>
							<path class="st7" d="M216.7,158.3c2.7,4.5,3.7,9.7,3,14.9l29.7,4.5c0.9-6,0.8-12.1-0.4-18.1c-1.2-6-3.4-11.7-6.6-16.9
								L216.7,158.3z"/>
						</g>
						<path class="st8" d="M235.9,168.7l-3,0.1l0,2.3c0,0.8-0.1,1.5-0.2,2.3l3,0.3c0.1-0.8,0.2-1.6,0.2-2.5L235.9,168.7z"/>
						<path class="st8" d="M234.7,159.9l-2.9,0.8c0.2,0.7,0.3,1.5,0.5,2.2c0.1,0.7,0.4,1.5,0.4,2.2l3-0.4c0-0.8-0.3-1.6-0.4-2.4
							C235,161.5,234.9,160.7,234.7,159.9z"/>
						<path class="st8" d="M231.4,151.7l-2.6,1.4c0.3,0.7,0.8,1.3,1,2l0.9,2.1l2.8-1.1l-1-2.3C232.2,153.2,231.8,152.5,231.4,151.7z
							"/>
					</g>
				</g>
			</g>
		</g>
	</g>
</g>
<path class="st9" d="M73.8,235.4c0-0.3,0-0.5,0-0.8c-0.4-19.2-16-34.4-34.8-34C20.4,201,5.7,216.5,5.7,235.4H73.8z"/>
<polyline class="st10" points="177.5,168.8 193,183.2 218.4,154.1 "/>
</svg>
