<?xml version="1.0" encoding="utf-8"?>
<!-- Generator: Adobe Illustrator 22.0.1, SVG Export Plug-In . SVG Version: 6.00 Build 0)  -->
<svg version="1.1" id="Layer_1" xmlns="http://www.w3.org/2000/svg" xmlns:xlink="http://www.w3.org/1999/xlink" x="0px" y="0px"
	 viewBox="0 0 792 612" style="enable-background:new 0 0 792 612;" xml:space="preserve">
<style type="text/css">
	.st0{display:none;}
	.st1{opacity:0.8;enable-background:new    ;}
	.st2{fill:#DCEBF9;}
</style>
<g id="Layer_1_1_" class="st0">
</g>
<g class="st1">
	<g>
		<path class="st2" d="M785.6,183.7c-1.7,0.1-8-2.3-13.9-5.4c-5.9-3.1-22.9-7.7-22.9-6.7s-6.3,2-13.8,1.3c0,0,0,0-6.6-0.9
			c-1.3-0.2-2.4-1.5-3.5-2.4c-1.3-0.9-2.6-2.4-4.1-2.6c-2.9-0.3-5.9,0.5-8.7,0.2c-2.9-0.4-7-0.8-8.2-2.7c-2.9-4.8-5.6-2.4-8.6-1.1
			c-0.7,0.3-0.7,0.3-0.7,0.3c-1,0.2-1.7-0.1-1.5-0.7c0.2-0.6-1.4-2.5-4.1-2.6c0,0,0,0-2.3-0.2c-2.6-0.2-5.1-0.5-5.1,3.4
			c0,0.6-1.6,1.6-2.4,1.6c-4.5,0.2-4.5,0.2-4.5,0.2c-5.2,0-10.4,1.7-11.6,3.9c0,0,0,0-2.9-2.2c-2.5-2-2.5-2-2.5-2
			c-2.8-2.5-4.4-4.9-3.7-5.3c0.7-0.4-0.9-2.3-5.1-3.4c0,0,0,0-3.9,0.7c-2.9,0.6-6,1-8.9,0.7c-4.3-0.4-4.3-0.4-4.3-0.4
			c-4.7-1.1-8.9-3.2-9.4-4.8c-0.5-1.5-5.6,0.1-5.4,0.4s0.4,1,0,1.1s-1.5,0.7-1.3,1.1c0.2,0.4-0.5,2.4-2.5,2.7s-6.9,0.8-7,0.5
			s2.8-3.2,6.6-5.8c0,0,0,0,3.8-1.3c3.2-1.1,3.2-1.1,3.2-1.1c0.8-3.1-1.4-5.7-5-5.8c0,0,0,0-3.4-0.3c-2.8-0.2-2.8-0.2-2.8-0.2
			c-3.2-0.6-5.6-1.6-5.4-2.3s-0.6-1.9-2.5-1.7s-9.4,6-15.9,6.4c-6.6,0.4-22.7,6.5-22.3,7.4s-1.8,3.1-6,2.7c0,0,0,0-3.4,0
			c-1,0-1,0-1,0c-1.1,0.8-1.4,2.4-0.7,3.4c0,0,0,0,0.7,0.9c1.4,1.9,3,3.7,4.3,5.7c0.3,0.5,0.3,0.5,0.3,0.5c-0.6,1.1-1.8,1.4-2.6,0.8
			c0,0,0,0-0.7-0.7c-1.3-1.4-2.3-3.5-3.9-4c-2.4-0.9-2.4-0.9-2.4-0.9c-3.4-0.1-5.5,0.6-4.7,1.5s1.6,2.9-0.4,2.1
			c-1.9-0.8-6.4,0.1-8.1,5.7c0,0,0,0,2.5,0.3c5.9,0.8,5.9,0.8,5.9,0.8c2.5,4.8,2.7,8.5,0.5,8.3c0,0,0,0-1-2.3
			c-0.5-1.3-0.5-1.3-0.5-1.3c-1.2-1.1-3.2-1.1-4.3-0.1c0,0,0,0-0.9,1.1c-1.1,1.4-1.9,3.1-3.1,4.4c-3.3,3.6-3.3,3.6-3.3,3.6
			c-3.2-2.7-5-4.7-4-4.5s5.1-3.7,7-9.2c0,0,0,0-1.2-5.2c-0.4-1.6,0-3.3-0.4-4.8c-0.3-1.3-0.8-3.3-1.6-3.5c-1.3-0.3-3.4,0.1-4.3,1
			c-2.2,2-2.2,2-2.2,2c-1.9,3-2.3,7-0.7,8.9c0,0,0,0,1.3,1.9c0.4,0.6,0.7,1.9,0.4,2.2c-0.6,0.5-1.7,0.9-2.5,0.8
			c-0.9-0.1-1.7-0.9-2.6-1.3c-4.8-2.1-9.5-4.3-14.1,0.7c-0.6,0.7-0.6,0.7-0.6,0.7c-1.9-0.3-5,0.5-6.8,1.9s-12-0.8-16.8,1.9
			c0,0,0,0-4.6,2.2c-1,0.5-1,0.5-1,0.5c-1.5-0.3-2.6-1-2.5-1.7s-0.1-2.9-0.8-3.2s-3.1,0-2.6,1.7c0,0,0,0,0.2,1.2
			c0.4,2.7,0.9,5.1-3.4,4.6c-1.4-0.2-3.9,0.8-4.3,1.9c-1.6,4.3-1.6,4.3-1.6,4.3c-3.6-1.2-6.2-1.6-5.8-0.9s-0.2,1.4-2.3-0.4
			s-4.5-6.3-1.2-5.7c0,0,0,0,3,0.3c3.1,0.3,3.1,0.3,3.1,0.3c3.1-2.4,1.8-6.4-2.7-8.9c0,0,0,0-4.3-1.6s-4.3-1.6-4.3-1.6
			c-5-1.1-8.9-2.2-8.6-2.6s0-1.7-1.2-2.3c0,0,0,0-1.2-0.1c-3.1-0.3-6.5-1.3-9.2-0.4C420,169,420,169,420,169
			c-5.4,2.7-12.2,7.1-15.1,9.8s-8.9,11.7-8.6,14.4c0,0,0,0-0.8,1.6c-0.5,1-0.5,1-0.5,1c-2.7,0.1-5.9,1.1-6.9,2.2c0,0,0,0-1.4,1
			c-2.3,1.7-3.4,3.5-2.3,6.4c0.4,1.1,0.4,2.5,0.4,3.7c0.2,3.6,1.8,4.7,5.1,3c1.8-0.9,1.8-0.9,1.8-0.9c2-1.5,4.4-0.7,5.4,1.7
			s4.7,8.2,6.1,7.7s4.9-1.9,4.7-2s0.8-2.7,2.5-5.4c0,0,0,0,1.2-2.7c0.5-1.1,0.5-3.1-0.2-4.1c-2.1-2.9-1.8-5.8,0-8.1
			c2.9-3.8,7.7-6,9.4-11c0.2-0.7,4.1-1.1,5.4-0.3c2.6,1.6,0.1,3.3-1,4.7c-1.3,1.6-2.8,3.1-4.2,4.6c-2.4,2.8-2.2,6.1-0.8,9
			c1.5,3.1,4.2,0.6,6.3,0.4c1-0.1,1.9-0.6,2.8-0.6c2.8-0.1,2.8-0.1,2.8-0.1c3,1.6,2.5,3.3-1.2,3.9c0,0,0,0-3.1,0.2
			c-3.2,0.3-4.9,1-2.9,4.6c0.6,1.1,0.6,1.1,0.6,1.1c-0.3,2-1.2,3.3-2.1,2.8s-3.9-0.4-4.3,1.5c0,0,0,0-0.1,1.5
			c-0.3,3.4-2.5,4.7-5.4,5.3c-2.6,0.6-5.3,0.5-7.7,1.5c-4.2,1.7-7.6-1.6-11.6-1.4c-0.4,0-1-2.5-1.2-3.9c-0.1-1-0.1-1-0.1-1
			c0.3-1.2,0.3-2.2-0.1-2.2s-1.3,1.3-1.4,3s-3.5,6.8-7.3,7.7c0,0,0,0-1.7,2.2c-2,2.5-4,4.4-6.7,6c-4.6,2.7-4.6,2.7-4.6,2.7
			c-4.4,3-6.2,8.2-4,11.6c0,0,0,0,1.1,3.6c1.2,3.6-1.5,6-5.4,5.7c-2.9-0.3-5.8-0.5-8.7-0.7c-2-0.1-2.9,0.7-3,2.9
			c-0.1,3.2-0.8,6.3-0.7,9.5c0,1.6,0.8,3.7,2,4.6c4.1,3.1,11.6,3.4,14.8-0.4c3.4-4,6.9-8.1,9.9-12.3c2.1-3.1,3.4-4.8,7-4.5
			c1,0.1,2.2-0.3,3.1-0.9c2.9-1.7,4.8-0.7,6.8,1.6c2.1,2.4,4.2,5,6.8,6.6c3.1,1.9,3.1,1.9,3.1,1.9c2.1,3.1,3.9,4.6,4.1,3.4
			s-2.5-6.8-6.2-11.2c0,0,0,0-3.2-3.9c-1.6-2-1.6-2-1.6-2c1.6-1.5,5.8-0.3,9.4,2.7c0,0,0,0,2.7,3.1c2.8,3.2,4.9,6.9,7.3,10.3
			c0.7,1,1.4,2.3,2.4,2.8c2.9,1.3,3,1.2,0.7,3.5c-0.2,0.2-0.2,0.2-0.2,0.2c0.2,0.9,2.2,0.7,4.6-0.6c0,0,0,0,0-1c0-1.9,0-1.9,0-1.9
			c-1.4-2.5-0.2-5.2,2.7-6.1c0,0,0,0,2.6-0.3c3-0.3,3.9-1.4,3.9-4.5c-0.1-5.5,3-9.7,7.3-12.8c1.6-1.2,4.2-1.4,4.3,1.5
			c0.1,3.7,0.1,3.7,0.1,3.7c2.6-0.3,4.4-1.1,4.1-1.8s-0.3-3.2,1.2-3.7s5.6-1.5,5.8-1.4s0.2,3.4-0.5,7.3c0,0,0,0,3.3,2.5
			c1.8,1.4,4.2,4.5,3.8,5.9c-1.1,3.4-4.8,2.2-7.6,2c-0.7-0.1-1.4-0.2-2-0.6c-5.5-3.3-10.7-1.3-15.9,0.8c-2.2,0.9-4.8,1.8-6.1,3.6
			c-2.3,3.3,1.6,9.3,5.9,9.3c4.3,0.1,4.3,0.1,4.3,0.1c4.8,0,8,5.9,7.1,13.2c0,0,0,0-2.4,2.3c-0.6,0.5-1.4,1.2-2.1,1.2
			c-4.7-0.4-9.5-0.7-14.2-1.5c-2.7-0.5-5.3-1.7-7.9-2.6c-2.8-1-5-0.5-6.1,2.5c-1.4,3.6-3.7,3.5-6.6,2c-4.2-2.2-8.4-4.2-12.6-6.4
			c-2.1-1.1-3.3-2.5-2.5-5.4c1.3-4.7-0.6-6.7-5.3-5.9c-7.6,1.4-15.1,3.1-22.7,4.5c-2.7,0.5-2.7,0.5-2.7,0.5c-3.2,0.1-7.7,2.1-10,4.3
			c0,0,0,0-2.1,2.5c-0.9,1.1-1.8,2.7-1.8,4c0.3,4.3-2,6.8-4.7,9.6c-6.1,6.4-12.2,12.8-10.9,23c0.5,3.9-0.9,7.9-1.2,11.9
			c-0.1,1.3,0.3,2.9,0.9,4c2.6,4.8,5.6,9.5,8,14.4c2.1,4.1,8.9,9.6,12.7,9c6.7-1,13.4-2,20-3.5c3.4-0.8,5.9-0.1,8.2,2.4
			c0.9,0.9,2.5,1.7,3.7,1.6c4.5-0.3,5.4,0.3,5.4,4.9c0,3.1-0.4,6.1-0.3,9.2c0.1,1.7,0.4,3.6,1.2,5.2c1.6,3.5,3.5,6.8,5.5,10.1
			c3.4,5.8,3.9,11.6,1.2,17.8c-2.4,5.4-2.9,10.9,0.3,16.4c1,1.7,1.6,3.9,1.8,5.9c1,8.7,4,16.7,8,24.4c1.1,2.2,1.1,2.2,1.1,2.2
			c0.2,3,2.9,6.5,6,7.9c0,0,0,0,3.7-0.1c14.2-0.3,20.7-11,22.8-21.4c0.3-1.5,1.1-3.4,2.3-4.2c3.8-2.4,4.5-5.8,3-9.4
			c-1.8-4.4,0.3-6.8,3.4-9.1c1.2-0.9,2.5-1.8,3.7-2.6c3.6-2.3,5.4-5.7,5.1-9.9c-0.3-3.6-1.1-7.1-1.9-10.6c-1.1-4.8-3.2-9.7,0-14.4
			c2.7-4,5.1-8.5,8.7-11.6c9.3-7.8,9.3-7.8,9.3-7.8c4.5-11.9,4.7-20.9,0.7-20c0,0,0,0-3.5,0.7c-3.4,0.6-5.9-0.6-7.4-3.8
			c-0.5-1-1.2-1.8-1.8-2.7c-4.6-7.5-12.2-13.4-12.1-23.3c0-0.8-0.6-1.5-0.9-2.3c-2.2-4.3-4.5-8.6-6.6-12.9c-0.7-1.4-0.7-1.4-0.7-1.4
			c-0.5-1.7,2.9-1.4,7.6,0.8c0,0,0,0,1.5,4.6c0.3,0.8,0.4,1.6,0.7,2.4c0.3,0.8,0.6,1.5,1,2.2c1.2,2.3,2.6,4.5,3.7,6.9
			c0.8,1.7,1,3.9,2.2,5.3c3.7,4.1,5.7,8.6,6.1,14.2c0.2,3.9,2,4.6,5.8,2.7c5.6-2.7,11.2-5.5,16.7-8.4c6.5-3.5,6.5-3.5,6.5-3.5
			c3.8-6.1,5.4-12.2,3.7-13.7s-7-4.4-8-3.7c0,0,0,0-2,1.1c-2.1,1.2-3.8,1.4-5.1-1.7c-1.6-3.9-4.1-7.5-6.1-11.3
			c-0.5-0.9-0.5-0.9-0.5-0.9c0.1-1.3,1.4-2.6,3.1-2.9c0,0,0,0,1.2,0.4c1,0.4,1.8,1.7,2.5,2.7c2.5,3.7,5.7,5.9,10.5,5.4
			c0.9-0.1,2.3,0.1,2.6,0.7c1.9,3.5,5.3,3.7,8.3,3.5c8.2-0.7,8.2-0.7,8.2-0.7c6.6,4.3,12,8.4,12,9.2c0,0.7,0.8,2.2,1.6,1.9
			s4.7,4.3,6,11.2s10.9,22,12.9,18.2c0,0,0,0-0.2-2.8c-0.6-8.5,3.9-13.6,10-18.1c0.4-0.3,0.8-0.7,1.2-1.2c3.7-5.3,3.7-5.3,3.7-5.3
			c6.3-2.4,13.4-2.1,15.6,0.5c2.3,2.7,3.7,12.5,5,11.8s4.6-1.2,4.9,0.2c0,0,0,0,0.4,1.1c3.4,8.8,0.8,18.7,5.4,27.4
			c2,3.7,2,3.7,2,3.7c3.1,3.9,4.8,2.5,3.8-3c0,0,0,0-3.2-3.8c-3.1-3.7-6.9-7.7-3.9-13.3c0.6-1.2,2-2.7,3-2.7c1.7,0,4,0.7,5,1.9
			c2,2.3,2,2.3,2,2.3c1.6,3.2,4.2,4.7,5.7,3.3c0,0,0,0,1.5-1c3.2-2,3.9-4.7,3.7-8.4c-0.4-5.1-2.9-8.9-5.7-12.7
			c-2.2-3.1,0.3-9.7,3.7-8.9c5.1,1.1,8.2-2.6,12.4-3.1c6.5-0.8,10-5.5,13.2-10.4c1-1.5,1.7-3.2,2.7-4.7c1.6-2.6,1.6-2.6,1.6-2.6
			c-1.5-3.8-2.2-8.8-1.6-11.1c0,0,0,0-1.4-1.8c-2.6-3.3-1.7-5.8,1.3-8.1c0.9-0.6,0.9-0.6,0.9-0.6c1-0.8-0.4-1.6-3.3-2
			c0,0,0,0-2.2-0.8c-1-0.4-2.1-2.3-1.9-3.3c0.5-2.5,0.5-2.5,0.5-2.5c5-1.5,8.9-2.1,8.6-1.3c-0.2,0.8,2.4,1.7,6.5,0c0,0,0,0,0.9,2.4
			c1.5,4,1.5,4,1.5,4c1.4,4.6,4.9,7.5,7.8,6.5c0,0,0,0-1.7-4.7c-0.6-1.7-1.4-3.3-1.9-5.1c-0.3-0.9-0.5-2.4,0-3
			c2.7-3.2,5.5-6.3,8.4-9.2c0.5-0.5,1.7-0.3,2.6-0.6c1.7-0.5,4.1-0.5,5-1.6c3.8-5.1,7.7-10.2,10.6-15.8c1.7-3.4,2.1-7.8,2.2-11.7
			c0.1-1.6-2.9-4.7-3.2-4.6c-4,1.9-4,1.9-4,1.9c-3.1-2.9-1.5-8.9,3.6-13.5c0,0,0,0,4.7-3.8c3-2.4,6.2-4.7,10.6-2.6
			c1.2,0.6,3-0.1,4.5-0.1c2.6,0,5.3-0.1,7.9,0.2c2.7,0.3,4.9,0.9,6.8-2.5c2.8-5,2.8-5,2.8-5c5.5-0.2,9.9,0,9.8,0.6s-0.5,2.2-0.4,2.3
			s1.7-0.8,3.2-2.1s5.8-4.8,6-4.6s-0.3,2.4-1.5,4.6c0,0,0,0-1.6,1.4c-4.4,4-9.2,7.6-13.6,11.5c-1.1,0.9-2,2.5-2.2,3.9
			c-1.1,5.4-1.1,5.4-1.1,5.4c1.5,5.8,3.2,10.1,3.8,9.5c0,0,0,0,0.4-0.4c3-3.3,6.9-6.2,8.6-10.1c1.1-2.5,4.5-4.9,2.7-8.6
			c-1.3-2.8-0.8-6.2,1.8-7.4c4.4-2.1,8.8-5.6,14.3-2.6c0.7,0.4,2.3-0.2,3.3-0.8c5.3-3.3,5.3-3.3,5.3-3.3c6.6-1.4,12.1-2.6,12.3-2.8
			s-0.4-2-1.6-3.5s-2.7-5.6-0.8-5.7s6.3-4.4,6.7-3.9s3.2,2.7,5.3,3.8s8.6,1.5,9.1,0.3s5.5-3.8,5.5-4.3S787.3,183.5,785.6,183.7z
			 M439.2,205c-0.6-1.2-0.9-2.3-0.7-2.6s1.4-0.5,2.2,0.1S439.7,206.2,439.2,205z M489.8,274.8c0.1,1.4-0.4,4.1-1,4.2
			c-2.2,0.3-4.7,0.3-6.6-0.5c-1.1-0.5-2.1-3.3-1.6-4.4c1.5-3.6,1.3-6.5-1.2-9.5c-0.8-0.9-1.1-2.2-1.5-3.4
			c-2.1-6.2,1.1-10.6,7.6-10.5c0.8,0,0.8,0,0.8,0c0.9,0.8,1.3,2.2,0.8,3.1c0,0,0,0-0.6,0.4c-3.3,1.9-3.8,3.9-1.8,6.9
			c1.1,1.7,1.1,1.7,1.1,1.7c0.9,2.1,2.4,3.7,3.4,3.7s1.8,0.2,1.8,0.4s-0.4,1-1,1.2s-1.2,2.6-0.3,4.9
			C489.6,272.9,489.6,272.9,489.8,274.8z M505.5,254.6c-0.1,0.1-0.3,0.5-0.5,0.8s-0.7,1.4-0.8,1.9c0,0,0,0-0.3,0.3
			c-0.1,0.1-0.1,0.1-0.1,0.1c-0.1,0.1-0.3,0.2-0.4,0.4s-0.6,0.3-1,0s-0.9-0.9-1.1-1c0,0,0,0-0.1-0.1c-0.2-0.2-0.4-0.5-0.6-0.7
			c-0.3-0.6-0.1-1.3,0.3-1.8c0.6-0.5,0.6-0.5,0.6-0.5c0.7-0.5,1.4-1,1.5-1.1s0.6-0.3,0.6-0.3l0,0c0,0,0.1,0,0.2-0.1c0,0,0,0,0.1,0
			c0.7-0.2,1.5,0.3,1.7,1c0.1,0.2,0.1,0.2,0.1,0.2c0,0.2,0,0.3,0.1,0.3s0,0.1,0,0.1S505.6,254.5,505.5,254.6z"/>
	</g>
</g>
<g class="st1">
	<path class="st2" d="M291.8,109.1c2.8,0,4.3,0.5,3.4,1.1s-3.2,2.3-3.2,2.5s3.3,0.3,7.3,0s15.4-0.9,16.9-0.3
		c1.6,0.6,2.3,3.1-3.3,3.7c-5.6,0.7-16.4,8-14.6,7.6c0,0,0,0,1.7-0.4c5.6-1.2,11.3-2.6,16.9-3.6c1.2-0.2,2.6,1.1,3.9,1.7
		c0.6,0.2,1.2,0.5,1.8,0.5c4.5-0.6,8.9-1.4,13.4-1.9c2.1-0.2,2.1-0.2,2.1-0.2c2.4,0.1,4.4,0.4,4.5,0.7s-2.2,1.8-5.3,3
		s-11.2,4.8-10.4,5.1s2.4,2,1.4,3.1s-3.5,5.3-2.7,6.4c0.8,1.1,1.8,3.8,0.7,3.9c-1.1,0.2-4.5,0.9-4.5,1.1c0,0.2,0.4,1,1,1.3
		s1.9,1.3,1.5,1.7c-0.4,0.3-0.6,1.8,0.5,2.5s3.6,3.3,2.6,3.5c-1.1,0.2-3.5,1.4-3.1,2s0.3,2.2-1.5,1.2c0,0,0,0-1.3-0.6
		c-2.1-1-4.3-3.8-6.5,0.3c-0.4,0.8-0.4,0.8-0.4,0.8c-2.3,0-3.8,0.8-3.3,1.8c0.4,1,3.8,4.5,6.3,5s2.5,4,1,3s-5.6,4.2-3.9,4.4
		c1.6,0.2,5.8,0.8,5.9,1c0,0.3-4.5,2.1-10.1,3.6c0,0,0,0-5.2,0.5c-5.5,0.5-5.5,0.5-5.5,0.5c-3.9,3.7-8.6,7.9-10.3,9.3
		c0,0,0,0-1.9,0.4c-5.7,1.3-5.7,1.3-5.7,1.3c-3.6,6.8-6.9,13.6-7.4,15.2c-0.5,1.6-4.9,3.3-6.2,2.1c0,0,0,0-1.3-0.4
		c-6.3-2.1-9.7-6.4-10.7-12.8c0-0.3,0.1-0.8,0-0.8c-7.1-2.7-7.1-2.7-7.1-2.7c3.6-3.4,6.1-6.2,5.7-6.2c-0.5,0-1.9-0.3-1.1-0.9
		c0.8-0.5,2-3,1.4-4.5c0,0,0,0,0.4-0.5c3.7-4.2,0-4.7-2.7-5.8c-0.3-0.1-0.3-0.1-0.3-0.1c-0.4-0.2,0.1-1.2,1.1-2.3s-2-4.8-2.4-4.4
		c-0.3,0.4-1.5,1.4-1.9,1.2c0,0,0,0,0-0.1c0.4-4.6-3.3-7.4-5.1-11c-2.9-5.7-7.4-6.9-13.3-5.8c-2.4,0.5-5,0.3-7.4,0.7
		c-3.5,0.7-3.5,0.7-3.5,0.7c-2.7-2.2-3.8-4.3-2.6-4.7s4.6-1.5,4.6-1.7c0-0.3-1.6-1.3-3.6-1.6s-4.5-1.4-0.3-1.7s9.2-9.8,8-9.8
		s-4.3-0.2-4.3-0.4s2.7-1.6,6.2-2.5c0,0,0,0,3.1-1.2c1.4-0.6,2.7-1.8,3.7-3c1.1-1.3,1.1-1.3,1.1-1.3c1,0.6,2.2,1.2,2.6,1.3
		c0.4,0.1,1.5-0.1,1.6-0.5c0.1-0.5,2.3-2.2,4.7-2.4c2.4-0.2,8.8-0.8,8.8-0.8c0-0.1,1.7-0.9,3.9-1.8c0,0,0,0,2.1-0.2
		c3.5-0.3,3.5-0.3,3.5-0.3c4.1,0.1,6.9-1.1,6.2-2.6c-0.7-1.6-4.6-1.9-3.8-3c0,0,0,0,0.7,0c3.5,0.2,7,0.4,10.4,1.2
		c2.4,0.5,2.4,0.5,2.4,0.5C280.6,110.2,289.1,109.1,291.8,109.1z"/>
</g>
<g class="st1">
	<path class="st2" d="M200.1,109.1c1.8,0,6.2,0.2,9.6,0.4c0,0,0,0,3.1,0.2c2.7,0.2,5.8-0.9,7.9,2.3c0.5,0.7,2.9,0,4.3,0.2
		c2.4,0.4,2.4,0.4,2.4,0.4c2.6,0.6,4.7,1.4,4.7,1.7c0,0.3-2.2,2-4.9,3.2c-2.7,1.1-10,4.9-9.1,5.2c0.9,0.3,2.4,1.3,1.9,1.7
		c0,0,0,0-0.5,0.3c-2.6,1.6-5.2,3.2-7.9,4.6c-1,0.5-2.5,0.8-3.4,0.5c-4.5-1.6-4.5-1.6-4.5-1.6c-2.8,3.2-4.5,6-3.7,6
		c0.8,0.1,1.7,1.7-0.7,3.2c-2.3,1.6-9.5,2.7-9.5,3s0.9,1.1,2,1.5s1.3,1.6-3,1.6s-15.5,0.1-15.6-0.2c0-0.3,0.4-1,0.9-1
		s2.1-0.6,1.8-1.1c-0.2-0.5-0.4-2.3,0.4-2.5c0.8-0.2,1.7-2.9-0.6-5.4c0,0,0,0-3.6,3c-2.9,2.5-2.9,2.5-2.9,2.5
		c-3.1-2.3-5.1-4.5-4.4-4.8c0.6-0.3,1.1-2.1-1.6-2.6c0,0,0,0-1.9-0.7c-0.9-0.3-1.8-1.3-2-2.2c-0.1-0.5,1-1.4,1.7-2
		c0.8-0.8,1.5-1.6,2.4-2.3c0.6-0.4,1.7-1,2.1-0.8c3.3,2.2,8.1,1.6,10.1,6.4c2.5,5.7,2.5,5.7,2.5,5.7c6-1.1,9.4-2.6,7.6-3.4
		c-1.9-0.8-6.8-3.2-6.8-3.5s3.2-0.8,6.8-0.4s6.5-5.6,1.3-4.8c-5.2,0.8-13.5-5.8-7.2-7.3c0,0,0,0,5.3-1.3c0.5-0.1,1.3-0.4,1.3-0.8
		c0.6-4.1,0.6-4.1,0.6-4.1C190.6,109.5,198.3,109.1,200.1,109.1z"/>
</g>
<g class="st1">
	<g>
		<path class="st2" d="M290.3,394.4c-3.5-3.2-6.8-6.7-12.3-7c-2.9-0.2-6.1-1.7-8.5-3.4c-2.9-2.1-5-3.3-7.7,0.1
			c-1.5,1.8-3.4,2.4-5.5,0.9c-0.2-0.1-0.2-0.1-0.2-0.1c0.1-0.2,0-0.5-0.1-0.7s-1.2-1.3-1.4-1.2s-0.5,0.1-0.6,0s0.4-2.8,2.1-5
			c0,0,0,0,1.5-2c0.1-0.1,0.1-0.3,0-0.4c-0.5-0.8-1.4-1.6-1.5-2.6c-0.9-6.3-5.3-8.1-10.8-9c-1.8-0.3-3.7-1.3-5-2.6
			c-2.8-2.6-5.3-5.7-8-8.4c-0.7-0.7-1.7-1.1-2.7-1.3c-5-0.9-9.9-1.6-15.6-2.6c-0.1,0-0.3,0-0.3,0.2c-0.4,0.9-1.3,2.7-2.1,4.6
			c-0.1,0.2-0.3,0.3-0.5,0.2c-3.1-1.4-1.2-3.9-0.5-6.9c0.1-0.3-0.3-0.5-0.6-0.3c-3.9,3.6-7,6.5-10.2,9.5c-0.1,0.1-0.3,0.1-0.5,0
			c-1.9-1.8-4.9-2.6-8.5-1.4c-1,0.3-2.6-0.5-3.6-1.3c-3.1-2.5-2.9-6-2.5-9.6c0.7-5.2,0.2-5.7-5-6.4c-1.6-0.2-3.3-0.4-5.4-0.6
			c-0.2,0-0.4-0.2-0.3-0.4c1-4.7,1.9-9.1,2.9-13.5c0-0.2-0.1-0.4-0.3-0.4c-5.5-0.1-6.5,0.7-8,4.7c-0.5,1.3-1.9,2.7-3.2,3.1
			c-4.9,1.5-8.2,0.2-10.2-4.6c-1.5-3.5-2.3-7.5-2.4-11.2c-0.1-3.3,0.4-7.3,2.3-9.8c2.3-3.2,6.3-4.8,10.8-3.3
			c1.9,0.7,3.9,0.9,6.1,1.4c0.2,0,0.4-0.2,0.4-0.4c-0.8-3.2,0.9-4.2,3.5-4.3c7.9-0.2,9.5,1.1,11.8,8.6c0.6,1.9,2,3.6,3.1,5.4
			c0.1,0.1,0.1,0.1,0.1,0.1c0.2,0,0.5-0.1,0.8-0.3s0.5-0.3,0.6-0.4c0,0,0,0,0-0.1c0-0.9,0.1-1.8-0.2-2.5c-4.2-9.2-2.9-17,5.4-23.3
			c0.7-0.5,1.2-1.3,1.5-2.1c0.6-1.9,1.1-3.8,1.4-5.8c0.2-1.6,0.1-3.3,0.1-5.7c0-0.3,0-0.3,0-0.3c0.3,0,1,0.5,1.5,1.1
			s1.1,1.1,1.4,1.2c0,0,0,0,0.1-0.2c2-4.6,4.5-8.3,9-8.6c0.1,0,0.3-0.1,0.3-0.3c0.6-2.6,0.4-5,1.6-6c3.6-3.3,8.3-4.6,13.8-6
			c0.3-0.1,0.6,0.3,0.3,0.5c-1.1,1.2-1.9,2.2-2.7,3l0,0c0,0,0.3,0.4,0.7,0.8s1.6,0.2,2.6-0.5s7.8-5.8,7.6-6s-0.2-0.4-0.2-0.4l0,0
			c-1.7,1-3.3,2.1-5,3.2c-0.1,0.1-0.3,0.1-0.4,0c-2.7-2-5.2-3.9-7.9-6c-0.2-0.1-0.2-0.4,0-0.5c1.6-0.9,2.7-1.5,4.1-2.4
			c0.2-0.1,0.2-0.5,0-0.6c-5.3-1.7-8.2,2.6-12.4,3.9c-0.3,0.1-0.5-0.2-0.4-0.5c3.3-5.6,8.2-8.2,14.1-8.8c4.9-0.5,9.8-1.8,14.6-2.8
			c3.1-0.7,2.8-3.4,2-5.3c-0.3-0.9-2.5-1.5-3.8-1.6c-1-0.1-1-0.1-1-0.1c-1.1,0.3-2.1,0.3-2.2,0.1s0.3-2,1.4-2.8c0,0,0,0,1.2-0.9
			c0.2-0.2,0.2-0.5-0.1-0.6c-8.2-2.6-10.7-9.6-13-15.6c-0.1-0.1-0.2-0.2-0.4-0.2c-3.9,1.1-7.6,3-10.8,2.5s-2.7-4.2-1.4-6.9
			c0.1-0.1,0-0.3-0.1-0.4c-2.3-1.7-4.2-3.7-6.5-4.4c-2.9-0.9-6.3-1.5-9.1-0.7c-1.2,0.3-1.2,4.5-2,6.8c-1.4,4.3-1.2,8.5,1.2,12.4
			c0.2,0.4,0.1,1.1,0,1.6c-1.1,5.1-2.2,10.2-3.5,15.3c-0.7,2.6-2.2,3.3-4.6,1.6c-4.3-2.9-5.9-6.9-4.6-11.6c0-0.2,0-0.4-0.2-0.4
			c-8.4-2.4-16.6-4.2-21.3-12.1c-0.2-0.3-0.7-0.3-1.1-0.5c-3.8-1.5-5.2-4.3-2.7-7.1c4-4.5,5.4-12.1,13.3-12.7
			c0.9-0.1,1.8-1.1,2.9-1.9c0.2-0.2,0.2-0.2,0.2-0.2c-0.1-0.2-1.2-0.9-2.4-1.5s-2.2-1.1-2.3-1.2s0-0.4,0-0.6s0.2-0.5,0.2-0.6
			c0,0,0,0,0.2,0c2.2,0.2,5.3-0.1,5.9,1c1.1,2,0.6,4.9,0.8,8.1c0,0.1,0.1,0.2,0.2,0.2c0.6,0.2,2.3,0.9,2.6,0.5
			c1.8-2.4,1.8-2.4,1.8-2.4c2.5,0.2,4.5,0.1,4.6-0.1s-2.2-3.3-5.6-5.7c0,0,0,0-3.3-2.2c-0.2-0.2-0.2-0.5,0.1-0.6
			c3.9-1.4,6.9-2.4,10-3.5c0.2-0.1,0.3-0.3,0.2-0.5c-0.9-2-1.7-3.1-1.9-4.3c-0.8-4.7-1.4-5.4-4.9-4.8c-0.1,0-0.2,0.1-0.3,0.2
			c-1.5,2.8-1.5,2.8-1.5,2.8c-1.3,2.5-2.7,4.5-3,4.5s-2.4-2.2-3.5-4.7c0,0,0,0-1.1-2.6c-0.1-0.2-0.4-0.3-0.6-0.1
			c-1.5,1.3-2.6,2.3-4,3.6c-0.2,0.2-0.5,0.1-0.6-0.1c-1.3-3.1-2.2-6-3.7-8.4c-0.8-1.3-2.8-2.4-4.3-2.5c-0.9-0.1-2.7,1.9-2.7,3
			s1.6,2.2,2.6,3.3c0.3,0.3,0.7,0.6,1.1,0.8c0.1,0.1,0.2,0.3,0.1,0.4c-0.9,1.7-1.9,3.3-2.8,5c-0.1,0.1-0.2,0.2-0.3,0.2
			c-2.3,0-4.8-0.5-7,0.1c-5.4,1.3-10.5,1.9-15.4-1.9c-1.5-1.1-4.3-0.6-6.5-0.7c-0.2,0-0.2,0-0.2,0c-0.1,0.1-0.2,0.4-0.2,0.6
			s0,0.4,0,0.5s0.5,0.5,1,0.8s1,0.7,1.1,0.9c0,0,0,0,0,0.2c-0.5,1.6-0.5,1.6-0.5,1.6c-0.5,1.5-1,2.8-1.3,2.8s-5.7-1.2-10.8-2.8
			c0,0,0,0-4.9-1.7c-0.2-0.1-0.2-0.1-0.2-0.1c0-0.2,0.3-1,0.6-1.7s0.6-1.5,0.6-1.7c0,0,0,0-0.1-0.1c-0.6-0.4-1-0.7-1.5-0.8
			c-6.5-0.8-13.4-0.4-19.5-2.5c-5.7-1.9-9.2,0.6-13.4,2.8c-1.1,0.6-1.1,0.6-1.1,0.6c-1.5,0.2-2.8,0.2-2.9,0s0.4-1.1,1.1-1.7
			s1.3-1.3,1.3-1.5s-1.6,0.3-3.2,0.9s-2.9,1.1-3,1.2s0.1,1.3,0.3,2.5s0.2,2.3,0,2.4s-1.8-0.1-2.2-0.7c0,0,0,0-0.4-0.6
			c-0.7-1-1.5-2.4-2.5-2.7c-8.9-2.1-17.9-4-26.8-5.8c-3.4-0.7-6.8-1.3-10.2-1.8c-3.3-0.5-6.9-1.3-9.7-0.3
			c-6.1,2.3-11.8,5.8-18.5,9.2c-0.2,0.1-0.3,0.5,0,0.6c3.9,2.6,7.3,4.8,11.7,7.6c0.3,0.2,0.2,0.6-0.1,0.6c-2.1,0.5-3.7,1.3-4.8,0.8
			c-3.2-1.4-5.8-0.6-8.9,1.3c-0.2,0.1-0.2,0.4,0,0.6c2.2,1.6,4,3.5,6,4c2.2,0.5,4.7-0.6,7.1-1c0.2,0,0.4,0.1,0.4,0.3
			c0.7,3.2-0.8,4.8-4.9,6.5c-1.7,0.7-4.1,2.5-4.1,3.9c-0.1,1.8,1.3,4.7,2.8,5.5c4.5,2.3,9.5,3.9,14.8,5.9c0.2,0.1,0.3,0.2,0.2,0.4
			c-0.6,4.5-4.6,6.2-8.4,8.2c-0.3,0.2-0.1,0.7,0.3,0.6c7.8-3.4,14.9-7.4,18.4-16.1c0.9-2.3,2.3-3.3,4.6-2.6c0.2,0.1,0.2,0.1,0.2,0.1
			c0,0.2-0.4,1.4-0.9,2.7s-0.9,2.3-0.9,2.4s0.3,0.4,0.6,0.5s0.6,0.3,0.8,0.4c0,0,0,0,0.1-0.1c1.2-1.3,2.7-2.5,3.5-4.1
			c1.2-2.4,2.6-2.2,4.7-1.3c3,1.4,6.1,2.3,9.2,3.5c7.2,2.9,16.3,1.8,20.8,10.2c0.4,0.8,1.5,1.3,2.4,1.6c3.3,1.2,3.7,4,4.3,6.9
			c0.5,2.4,2,4.7,3.2,7c0.7,1.3,1.8,2.5,2.7,3.7c0,0,0,0,0.1,0.1c3.4,2.6,6.7,5.4,9.7,8.4c0.8,0.8,0.8,2.5,0.8,3.7
			c0,0.3-1.8,0.5-3.6,0.9c-0.1,0-0.2,0.2-0.2,0.3c0,6.1-0.2,12.5,0.1,18.9c0.1,2.5,1.3,5.1,2.3,7.4c0.8,1.8,2,3.4,3.2,5
			c1.7,2.3,3.1,5.3,5.4,6.7c6.3,3.8,8.1,10.5,10.4,16.2c1.9,4.8,5.3,8.3,7.4,12.7c0.3,0.7,1.2,1.1,2.4,1.7c0.3,0.2,0.6-0.2,0.4-0.5
			c-4.2-7.3-8.9-13.4-10-21.4c0-0.2,0.2-0.4,0.4-0.4c1.3,0.3,2.4,0.8,3,1.7c2.4,3.6,4.9,7.1,6.7,11c2.9,6.2,9.9,10.1,9.7,18
			c0,0.6,0.9,1.5,1.6,1.8c6.7,3.6,12.3,9.6,21,8.4c0.9-0.1,2,0.8,3,1.2c4.2,2.1,8.5,4,12.6,6.4c1.8,1.1,3.8,2.8,4.5,4.6
			c1.9,5.1,6.1,6.8,10.5,8.2c0.9,0.3,2.3,0.1,2.9-0.4c2.2-2.1,3.6-0.8,4.6,1.1c2.3,4.7,2.9,9.5-0.1,14.3c-1.3,2.1-2.9,4.1-3.9,6.4
			c-1.4,3.1-3.3,6.3,0.1,9.6c0.2,0.2,0.1,0.4,0,0.6c-1,0.7-1.9,1.3-2.7,1.9c-0.1,0.1-0.2,0.2-0.1,0.4c1.8,4.3,3.8,8,5,12.1
			c2.7,9.7,7.3,17.8,16.1,23.3c1.4,0.9,2.3,3.7,2.3,5.6c-0.4,9.4-0.8,18.9-1.9,28.3c-0.6,5.6-2.9,10.9-3.7,16.5
			c-0.9,5.8-1,11.6-1.3,17.5c-0.2,4,0,8.1,0,11.9c0,0.2,0,0.2,0,0.2c-0.2,0.1-1.1,0.1-2,0.1s-1.8,0.1-2,0.3c0,0,0,0,0.2,0.2
			c0.4,0.6,0.8,1.1,1.3,1.7c1.2,1.4,2.5,2.8,3.5,4c0.1,0.1,0.1,0.3,0,0.4c-4,3.3-1.4,7.5-2.7,10.1c-0.1,0.2-0.1,0.4,0.1,0.5
			c2.4,2,4.4,3.7,6.5,5.5c0.2,0.1,0.4,0.1,0.5-0.1c3.5-5.7,7.1-11.7,10.7-17.7c0.1-0.1,0.1-0.3-0.1-0.4c-4.3-4.3-4.2-4.5,0.2-9.3
			c0.5-0.6,0.6-1.5,0.9-2.2c0.7-1.5,1.4-2.9,2.2-4.6c0-0.1,0-0.1,0-0.2c-0.4-1.1-0.4-1.1-0.4-1.1c-0.6-1.5-0.9-2.7-0.6-2.6
			s0.7,0.2,0.8,0.3c0,0,0,0,0.1-0.1c1.9-1.9,3.7-4,5.8-5.7c1-0.9,2.3-1.4,3.6-1.8c1.4-0.5,3-0.5,4.5-1c4.1-1.4,4.9-3.6,2.6-7.2
			c-0.7-1.1-1.4-2.1-2-3.1c-0.1-0.2,0-0.5,0.3-0.5c2.9,0.1,5.8,0.8,7.9-0.2c5.6-2.4,12-15.5,11.5-21.7c-0.1-1.1,0.6-2.9,1.5-3.4
			c4.5-2.7,9.1-4.9,13.6-7.5c1.4-0.8,3.2-2.1,3.6-3.5c1.6-5.4,3-10.9,3.7-16.5c0.5-4,1-7.4,3.9-10.6c2.2-2.4,3.7-5.5,4.8-8.6
			C291.5,398.3,291.4,395.4,290.3,394.4z M172.6,243.4c0.8-0.2,0.8-0.2,0.8-0.2c0.7,0.3,1.5,0.7,1.8,0.9s2.3,1.9,4.1,2.9
			c0,0,0,0,2,2.8c1.2,1.6,3.4,2.5,5.3,3.5c0.2,0.1,0.2,0.1,0.2,0.1c0.2,0.1,0.4,0.1,0.6,0.1c0,0,0,0,0.1,0s0.3,0,0.4,0l0,0
			c0.1,0,0.4,0,0.6-0.1c0,0,0,0,0.2,0c0.6-0.1,1.2-0.1,1.9,0c1.4,0.4,2,1.8,1.8,3.1c0,0.2,0,0.2,0,0.2c-0.1,0.2-0.6,1.7-1.1,3.2
			c0,0,0,0-1.1,0.6c-1.7,1-3.1,0-4-1.5c-0.4-0.7-0.6-1.6-1.1-2.3c-0.8-1.1-2.1-1.9-3.2-2.6c-0.1-0.1-0.1-0.1-0.1-0.1
			c-0.1-0.1-0.7,0.3-1.3,0.7c0,0,0,0-0.2,0.5c-1.1,2.4-1.9,5-2.8,7.6c-0.1,0.3-0.5,0.3-0.6,0c-1.8-5.7-1.3-7.1,4.4-10.9
			c0.3-0.2,0.2-0.6-0.1-0.6c-4.2-0.8-7.6-1.5-10.7-2.2c-0.1,0-0.1,0-0.1,0c-0.1-0.1-0.4-0.4-0.7-0.7c0,0,0,0-0.1-0.4
			C169.1,246.1,170.7,243.9,172.6,243.4z"/>
	</g>
</g>
<g class="st1">
	<path class="st2" d="M665.9,411.2c3.8,0.2,6.5,2.9,5.9,5.8c-0.5,3,10.7,8.1,11.7,4.7s3.7-12.1,3.8-12.2c0.2,0,2.1,4.3,3.9,9.7
		c0,0,0,0,2.1,4.7c1.5,3.4,1.5,3.4,1.5,3.4c2.3,3.5,5.5,8.4,7.2,10.9c0,0,0,0,1.6,2.2c0.6,0.9,0.6,0.9,0.6,0.9
		c0.8,0.9,2.5,2.7,3.6,4.1s0.9,10.7-0.3,15.8c-1.2,5.1-5.3,18.9-5.7,19.6c0,0,0,0-0.6,0.3c-2.1,1.2-2.1,1.2-2.1,1.2
		c-2.6,1.3-6.5,1.3-8.6-0.1c0,0,0,0-3.2,1.4c-2,0.9-4.5-0.1-5.6-3c-1-2.5-2.3-4.9-3.7-7.3c-0.3-0.5-0.3-0.5-0.3-0.5
		c-1.2-0.2-2-1-1.9-1.9s0.4-3.4,0.2-3.5s-1.3,0.5-2,1.4c-0.7,1-2.3,3.3-2.1,3.1s-0.3-1.7-1.5-2.5c-1.2-0.9-10.2-3.7-16.9-4.6
		c0,0,0,0-6,2.4c-5.2,2.1-5.2,2.1-5.2,2.1c-5.7,2.4-11.4,4-12.8,3.5c-1.4-0.5-3.1-5.5-3.7-9.6c-0.6-4.1-4.9-14.4-4.3-14.2
		s2.3-0.5,1.7-2.5c0,0,0,0-0.7-1.2c-1.8-3-1.8-3-1.8-3c2-2.2,6.6-5.6,10.2-7.5c0,0,0,0,3.3-1.7c3.8-1.9,3.8-1.9,3.8-1.9
		c1.8-4,3.7-7.2,4.2-6.9c0.5,0.2,2.1-0.6,3.2-2.1c1.1-1.4,5-4.2,6.7-3.7C653.8,419.2,662.1,410.9,665.9,411.2z"/>
</g>
<g class="st1">
	<path class="st2" d="M180.1,165.4c1.3,0.9,2.3-0.6,2.3-3.4c0-2.8,6.6-2.5,7.5,0.9c0,0,0,0,3.9,0.2c0.9,0.1,2.2-0.3,2.8-0.9
		c2.8-2.6,5.7-1.9,7.6,0.6c2.3,3,2.3,3,2.3,3c3.3-0.6,5.8-0.8,5.5-0.3c-0.2,0.5,0.6,2.1,2.4,2.8c1.8,0.7,5.8,4.9,4.9,7.7
		c0,0,0,0,4.1,1.4c3.6,1.2,3.6,1.2,3.6,1.2c3.6,1.9,6.5,4,6.4,4.6c0,0,0,0-0.1,0.2c-2.9,4.9-5.8,3.9-9.3,0.4
		c-0.7-0.7-0.7-0.7-0.7-0.7c-2.8,0.7-2.8,3.8,0,6.9c0,0,0,0,1.8,2.4c1.2,1.6,2.7,3.4-0.2,5.2c-0.6,0.3-0.6,0.3-0.6,0.3
		c-0.1,1.4-4.9,1-10.7-0.9c0,0,0,0-4.7-3.9c-1.9-1.6-5.3-1.2-8.1-1.7c-1-0.2-1-0.2-1-0.2c-1.6,0.1-1.5-0.4,0.2-1.1
		c1.7-0.7,7.4-2.9,9-3.5s2.5-5.3-0.1-8.4c0,0,0,0-2.3-2.5c-0.9-1-2-2.1-3.2-2.6c-8.2-3.8-17-3.9-25.7-3.9c-4.4,0-5.8-2.8-6.6-6.1
		c-0.8-3.5,2-5,4.5-6.1c1.1-0.5,3.3-0.2,4,0.6c1,1.1,1.6,3.1,1.2,4.5C180.1,165.4,180.1,165.4,180.1,165.4z"/>
</g>
<g class="st1">
	<path class="st2" d="M624.3,367.6c3.2-2.5,6.3-4.1,7-3.5s2.1,3,1.4,3.9c-0.7,0.8-1.8,4.2-0.6,5.4s-1.2,7.1-2,8.7s-4.1,6.7-6.1,7.2
		s-7.9-4-10.1-7.5c0,0,0,0-1.7-3.4C612,378,612,378,612,378C612.5,377.3,621.2,370.1,624.3,367.6z"/>
</g>
<g class="st1">
	<path class="st2" d="M112.8,159c-0.1,0.1,0.5-0.1,1.3-0.4l0,0c1.2-0.4,2.6,0.3,2.8,1.6l0,0c0.1,0.5,0.7,0.8,1.2,0.6
		c3.8-1.7,7.5-2.3,10.4,0.4c0.9,0.9,2.4,0.8,3.2-0.2c1-1.3,2.1-2.5,3-3.7c0.5-0.6,1.5-0.3,1.6,0.4c0.3,2.3,0.5,4.5,1.5,6.3
		c0.9,1.7,2.8,2.9,4.7,4.3c0.8,0.6,1.1,1.6,0.7,2.5l-0.6,1.4c-0.2,0.4-0.7,0.6-1.2,0.4c-4.4-2.3-9.2-2.1-14.1,0.2
		c-3.2,1.5-6.1,1.2-8.9,0c-2.1-0.9-1.6-3.9,0.6-4.1l2.2-0.2c0.5,0,0.8-0.4,0.8-0.8l0,0c0-0.5-0.3-0.9-0.8-0.9
		c-1.8-0.3-3.6-0.6-5.4-0.7c-2.3-0.1-4.6,0.9-6-2.2C108.4,160.7,111.9,160.7,112.8,159L112.8,159z"/>
</g>
<g class="st1">
	<path class="st2" d="M677.2,398.9c1.4-4.7-3.4-9.2-11.3-10.4c-0.6-0.1-0.9-0.7-0.7-1.2l0.6-1.5c0.2-0.4,0-0.9-0.3-1.1
		s-0.7-0.5-1-0.7c-0.8-0.5-0.4-1.7,0.6-1.7c1.8,0.1,3.2,0.8,3.8,3.5c0.5,2.3,2.6,3.4,4.6,1c1.6-1.8,1.6-1.8,1.6-1.8
		c2,0.5,5.6,1.8,8.1,3c2.5,1.1,10.2,5.1,11.8,6.1s3.6,5.9,3.6,6.1s0,0.8-0.3,1s-2,1.3-2,1.3l0,0c-2.1-2.6-2.1-2.6-2.1-2.6
		c-2.6,0.7-5.7,1.7-6.7,2.2c-1.1,0.5-5.8-0.6-7.8-1.4c0,0,0,0-1.8-0.7C677.3,399.9,677.1,399.4,677.2,398.9z"/>
</g>
<g class="st1">
	<path class="st2" d="M475.2,418.9c2.4-2.2,6.2-0.1,5.6,3.1l0,0c0,0-0.7,2.9-1.5,6.5s-3.4,14.1-3.6,15.6c0,0,0,0-0.8,0.8
		c-1.1,1.1-2.7,2-4.2,2.2c-0.8,0.1-0.8,0.1-0.8,0.1c-1-1.5-1.8-4.1-1.9-5.9s0.2-7.8,0.5-9.6c0,0,0,0,0.1-1.6
		c0.2-3.6,1.7-7.1,4.6-9.3C473.8,420.2,474.5,419.5,475.2,418.9z"/>
</g>
<g class="st1">
	<path class="st2" d="M665.6,291.8c-3.3,2.6-6.4,3.3-6.9,1.7c-0.5-1.6-0.9-6.2,0-6.6s4.1-1.9,5.2-2.4c1-0.4,5.1-2.6,6.9-3.6
		c0,0,0,0,1.6-0.9c0.6-0.4,1.4-1.2,1.9-1.1c3.7,0.9,3.7,0.9,3.7,0.9c-0.2-2,0.1-4.3,0.6-5.1s2.8-4.6,4-6.9c0,0,0,0,0.7,0.1
		c3.1,0.6,3.1,0.6,3.1,0.6c-0.4,2.8-1.3,7-2,9.3s-4,8.5-5.8,9s-7.7,1.6-8.1,1.2c-0.4-0.3-1.9-0.5-1.5,1.1c0,0,0,0-0.4,0.4
		C665.6,291.8,665.6,291.8,665.6,291.8z"/>
</g>
<g class="st1">
	<path class="st2" d="M430,128.2c0.1,0.4-0.1,0.9-0.6,1.1c-2.5,0.8-4.9,1.9-7.4,2.1c-1.7,0.1-1.7,0.1-1.7,0.1
		c-1.9-0.3-3.6-0.3-3.8,0c-0.2,0.3-0.7,2.2-0.4,2.5c0,0,0,0,0.3,0.3c0.6,0.6,0.2,1.5-0.6,1.5c-4.5-0.2-4.4,5.7-7.1,8.2
		c-0.3,0.3-0.7,0.3-1.1,0.1l-2.4-1.6c-0.4-0.3-0.5-0.9-0.1-1.3c0.4-0.4,0.8-0.9,1.2-1.3c0.4-0.4,0.3-1.1-0.3-1.4l-0.3-0.2
		c-0.6-0.3-0.7-1-0.2-1.4l0,0c0,0-0.1-0.3-0.2-0.5s-4.1-1.2-8.2-0.6l0,0c-0.8,0.1-1.3-0.8-0.8-1.4c1.1-1.2,2.7-2.1,1-3.5
		c-0.5-0.4-0.3-1.3,0.3-1.5l2.5-0.7c0.6-0.2,1.2,0.5,1,1.1l-0.2,0.6c-0.2,0.5,0.2,1.1,0.8,1.1c2.8,0,6-4.1,8.7,0.2
		c0.4,0.6,1.3,0.5,1.5-0.2c0.6-1.6,1.1-2.8,1.6-4.1c0.2-0.4,0.7-0.7,1.1-0.5c1.3,0.5,2.7,1.1,4.4,1.7c0.4,0.2,0.9,0,1.1-0.4
		c2.2-4,5.9-1,9.1-0.9c0.4,0,0.7,0.3,0.8,0.6C430,128,430,128.1,430,128.2z"/>
</g>
<g class="st1">
	<path class="st2" d="M360.1,215c2.3-2.8,3.1-3.2,1.8-0.7l0,0c-0.3,0.5,0,1.1,0.6,1.3l1.2,0.2c0.5,0.1,0.8,0.5,0.8,0.9
		c-0.1,7.1-0.1,7.1-0.1,7.1c4.9,5.9,6.7,11,4.2,11.2s-8.6,3.8-8.8,3.5c-0.1-0.3,0.7-1.2,1.9-2.1c1.2-0.9,1.4-2,0.4-2.4
		c-1-0.5-1.7-1.3-1.7-1.8c0,0,0,0,0.2-0.2c3.8-3.6,3.8-3.6,3.8-3.6C361.7,225,357.8,217.8,360.1,215z"/>
</g>
<g class="st1">
	<path class="st2" d="M583.5,366.8c0.2-0.3,0.6-0.3,0.9-0.2c1.6,0.9,3.4,1.5,4.5,2.8c3.6,4,3.6,4,3.6,4c3.7,4.6,8.4,9.8,10.4,11.5
		c0,0,0,0,2.2,1.7c0.2,0.2,0.3,0.5,0.2,0.7c-0.6,1.6-1.2,3.5-2,5.9c-0.1,0.4-0.7,0.6-1,0.3c-9.1-7.1-11.7-18.1-18.7-25.9
		C583.3,367.4,583.3,367,583.5,366.8L583.5,366.8z"/>
</g>
<g class="st1">
	<path class="st2" d="M522.7,144.6c0.1,0.2-4.1,1.8-9.1,3.5c0,0,0,0-4.7,0.9c-7,1.4-7,1.4-7,1.4c-4.1,5.6-7.6,10.6-7.7,11
		c0,0,0,0,0,0.5c0.1,2.6-2.9,4.2-4.8,2.4l-0.1-0.1c-1.2-1-1.3-2.8-0.2-4c2.5-2.8,5.1-5.5,6.3-9c0.3-1,1.1-1.7,2.1-2
		c4-1,8-2,12.1-2.8c4.4-0.9,4.4-0.9,4.4-0.9C518.5,144.6,522.6,144.4,522.7,144.6z"/>
</g>
<g class="st1">
	<path class="st2" d="M112.3,159.3c-0.2,0.1-2.7,0.9-5.6,1.9c0,0,0,0-2.8,1.4c-3.1,1.6-4.1,2.2-5.4,1.5c-1.8-0.9-2.5-3.1-1.8-4.9
		c0.3-0.9,0.6-1.7,0.8-2.6c0.6-4.1,3.6-3.7,6.3-3.2c9.7,1.7,9.7,1.7,9.7,1.7C113,157.3,112.5,159.2,112.3,159.3z"/>
</g>
<g class="st1">
	<path class="st2" d="M336.9,190.3c-4.6,3-8.4,3.7-12,2.3c-2.4-0.9-2.8-4.2-0.7-5.7c0.7-0.6,1.5-1,2.4-1.3c2.9-1,6.3-1.4,9.4-1.2
		c0.5,0,1,0.4,1.5,0.9C338.9,186.6,338.7,189.2,336.9,190.3z"/>
</g>
<g class="st1">
	<path class="st2" d="M189.8,149.2c1.6,0,1.9,2.4,0.3,2.7c-0.1,0-0.2,0-0.3,0c-7-0.1-14-0.6-21-0.9c-0.5,0-1.4-0.1-1.6-0.4
		c-0.8-1.6-1.8-2.7-3.1-3.5c-1.3-0.9-0.3-3,1.3-2.4c1.3,0.5,2.5,1.4,3.5,3c0.6,1,2.7,1.5,4.1,1.5
		C178.4,149.3,183.7,149.3,189.8,149.2z"/>
</g>
<g class="st1">
	<path class="st2" d="M743.2,508.2c-1.7-0.5-2.3-1.8-1.4-3.1c1-1.2,4.2-5.4,5.3-6.8s4.6-5,5.2-5.3s2.4-0.4,2.4,0.3
		c0.1,0.7-1.2,3.9-2.2,5.9s-4.6,8.6-5.9,10.3c0,0,0,0-2.3-1C743.2,508.2,743.2,508.2,743.2,508.2z"/>
</g>
<g class="st1">
	<path class="st2" d="M203.7,325.7c0.4,0.4,0.2,1.1-0.3,1.3c-2.4,0.9-4.1,1.3-6.4-1.3c-2-2.3-5.4-3.3-8.8-4.8
		c-0.6-0.3-1.2,0.2-1.1,0.8l0,0c0.1,0.7-0.7,1.2-1.2,0.8c-0.7-0.5-1.3-1-1.9-1.4c-0.5-0.3-0.4-1,0.1-1.3
		C188.7,317.1,198.2,319.9,203.7,325.7z"/>
</g>
<g class="st1">
	<path class="st2" d="M684,258.7c0.5-2.4,2.1-3.8,3.6-3c1.5,0.8,4.1,3.8,2.1,5c-2,1.1-8.5,3.6-10.6,1.6c0,0,0,0,3.6-2.6
		C684,258.7,684,258.7,684,258.7z"/>
</g>
<g class="st1">
	<path class="st2" d="M246.4,242.2c3.9-0.3,4.4,3.1,5.5,5.7c0.2,0.5,0,1-0.6,1.2c-0.8,0.2-1.7,0.5-2.7,0.8c-0.5,0.2-1.1-0.2-1.1-0.7
		l-0.3-1.6c-0.1-0.5-0.5-0.8-1-0.7c-2.8,0.4-6.2,2.7-7.1-1.1c-0.4-1.8,3.1-4.4,5.3-6.7c0.3-0.3,0.8-0.4,1.2-0.1l0,0
		c0.3,0.3,0.4,0.7,0.3,1.1l-0.5,1C245.2,241.5,245.7,242.2,246.4,242.2z"/>
</g>
<g class="st1">
	<path class="st2" d="M131.1,146l1.2,1c1,0.9,0.7,2.6-0.7,3l-9.1,2.4c-1,0.3-2.1-0.4-2.2-1.4c-0.3-1.8-1.6-2.2-4.6-1.5
		c-1,0.2-2-0.4-2.2-1.5c-0.1-0.5-0.1-1,0.1-1.3c0.3-0.6,1.9-0.7,2.9-0.5c1.9,0.4,3.7,1,5.5,1.8c4.1,1.7,5.4,1.8,6.3-1.1
		C128.7,145.6,130.2,145.2,131.1,146z"/>
</g>
<g class="st1">
	<path class="st2" d="M641,392.9c-0.3-0.7-0.3-0.7-0.3-0.7c-0.3-0.7-0.9-1.3-1.2-1.2c-0.3,0.1-2,0.9-2,1.5l0,0
		c0,0.9-1.2,1.1-1.5,0.3c-1.8-4.4-1.8-4.4-1.8-4.4c1.3-4.7,3.6-9.1,5.2-9.7c1.5-0.6,3.1-1.5-0.4-1.6c0,0,0,0-1.8,3.8
		c-0.2,0.5,0.1,1,0.6,1.1c0.7,0.1,1.4,0.2,2.1,0.3c0.9,0.1,0.9,1.4,0,1.6l0,0c-0.4,0.1-0.7,0.5-0.6,1c0.8,2.7,4.2,4.7,3.2,7.9
		C642.3,393.5,641.3,393.5,641,392.9z"/>
</g>
<g class="st1">
	<path class="st2" d="M761.2,488.8c-1,1.6-2.3,2.1-3,1.2s-2.5-5.3-2.4-7.5s-0.9-6.7,1.1-5C758.8,479.2,762.1,487.3,761.2,488.8z"/>
</g>
<g class="st1">
	<path class="st2" d="M590.9,128.5c0.2,0.1,0.3,1,0.3,2.2c-0.1,1.1-2.4,3.8-5.1,3c-2.7-0.8-7.8-3.8-5.6-5c2.2-1.1,7.2,1.7,7.7,1.2
		S590.7,128.4,590.9,128.5z"/>
</g>
<g class="st1">
	<path class="st2" d="M152.5,164.2c-1.2,0.2-2.2-0.2-3.7-1.5c-1.5-1.2-1.7-3.4-0.6-4.9c0.2-0.2,0.4-0.5,0.5-0.7
		c1.8-2.2,5.4-1.5,6.2,1.3l0.3,1.3C155.8,161.8,154.6,163.9,152.5,164.2z"/>
</g>
<g class="st1">
	<path class="st2" d="M348.6,233.9c-0.3-0.3-0.4-0.8-0.2-1.2c1.2-2.8,2.4-5.6,3.9-8.3c0.3-0.6,1.8-1,2.4-0.8
		c0.9,0.4,2.3,1.7,2.1,2.1c-0.7,2.2-1.5,4.5-3,6.3c-0.9,1.1-2.6,1.5-4,2.1C349.3,234.2,348.9,234.2,348.6,233.9L348.6,233.9z"/>
</g>
<g class="st1">
	<path class="st2" d="M646.7,348c-0.2,0.1-1.2-0.8-2.3-1.9s-6.1-7.4-8.4-12.1c0,0,0,0,2.5-2.3c0.5-0.5,2.1-0.6,2.5-0.2
		c0.6,0.6,1.2,2,0.9,2.8c-0.4,1.3-0.4,1.3-0.4,1.3c-1.1,1.4-0.8,4,0.7,5.7S646.9,347.9,646.7,348z"/>
</g>
<g class="st1">
	<path class="st2" d="M689.7,239.5c0.4,1.5,0.6,4.1,0.3,5.6c-0.3,1.6-1.3,5.5-1.8,5.4s-1.6-8.7-1.9-10.3c-0.3-1.7-0.4-7.3-0.2-9
		s0.9-6,1.1-6c0.2,0,0.7,1.3,0.8,2.9C688,229.7,689.3,237.9,689.7,239.5z"/>
</g>
<g class="st1">
	<path class="st2" d="M485.1,129.6c-0.2,0.2-1.1-0.3-2-1.2c-0.9-0.9-1.4-3.5,1.6-3.1c3.1,0.4,10.8,0.3,10.8,0.5
		c0.1,0.2-0.9,1.2-2.4,1.5c0,0,0,0-1.3,0.1s-2.7-0.1-4-0.3c-1.3-0.2-1.3-0.2-1.3-0.2c-1.5-0.3-2.7-0.5-2.7-0.3s0.1,0.9,0.6,1.2
		C484.7,128,485.3,129.4,485.1,129.6z"/>
</g>
<g class="st1">
	<path class="st2" d="M608.3,396.9c4.2,0.5,8.7,0.2,12.3,2.8c0.6,0.5,0.2,1.5-0.6,1.3c-4.1-0.8-8.5-0.6-12.1-2.7
		C607.2,397.9,607.5,396.8,608.3,396.9z"/>
</g>
<g class="st1">
	<path class="st2" d="M167.9,155.8c-1.8,1.7-3.6,3.4-5.9,5.6c-0.6,0.6-1.6,0.2-1.7-0.6c-0.2-2.1-0.5-4,0.3-4.6
		c1.6-1.3,4.1-1.5,6.3-2c0.5-0.1,1,0.2,1.2,0.7l0,0C168.3,155.1,168.2,155.5,167.9,155.8z"/>
</g>
<g class="st1">
	<path class="st2" d="M691.9,491.9c0.2-0.2,1.3-0.3,2.5-0.2s4.6,0.6,4.7,0.8s0,1.6-0.7,2.4s-3.3,2.3-4.1,1.3
		C693.5,495.3,691.7,492.1,691.9,491.9z"/>
</g>
<g class="st1">
	<path class="st2" d="M160.5,174.3c-0.2,0.4-0.4,0.8-0.7,1.2c-0.5,0.8-1.7,0.7-2-0.1l0,0c-0.2-0.6-1-0.9-1.6-0.6
		c-1.5,0.8-3.6,1.9-5.2-1.2c-0.3-0.5-0.1-1.1,0.4-1.4c2.6-1.6,5.5,0.5,8.2,0.6C160.4,172.7,160.9,173.6,160.5,174.3z"/>
</g>
<g class="st1">
	<path class="st2" d="M642,359.1c2.2-0.9,4.5-1.8,6.9-2.7c0.4-0.2,1,0.1,1.1,0.5c1,2.9,0.8,5.1-2.1,6.4c-0.2,0.1-0.5,0.1-0.7,0
		c-1.5-0.9-1.6-4.4-4.4-2.6c-0.5,0.3-1.2,0-1.3-0.6l0,0C641.4,359.5,641.6,359.2,642,359.1z"/>
</g>
<g class="st1">
	<path class="st2" d="M682.3,146.7c2.1,0.5,3.9,1.3,4,1.8c0.1,0.4-1.5,1.9-3.9,2.2c0,0,0,0-2.1,0c-1.1,0-2.4-0.4-3.2-1.1
		c-0.4-0.4-0.3-2.3,0.1-2.6c0.8-0.6,2.1-0.6,3.2-0.5C682.3,146.7,682.3,146.7,682.3,146.7z"/>
</g>
<g class="st1">
	<path class="st2" d="M601.8,135.4c-2.3,0.5-4.4,1.1-6.5,1.6c-0.9,0.2-1.7-0.8-1.2-1.6c2.5-4.1,4.7-4.7,8.2-1.9
		C602.9,134.1,602.6,135.2,601.8,135.4z"/>
</g>
<g class="st1">
	<path class="st2" d="M212.6,533.8c1-1.4,1.9-2.9,3.2-4.8c0.1-0.2,0.4-0.3,0.6-0.1c1.4,1.3,1.4,1.3,1.4,1.3c1.7,1.6,2.9,3.2,2.7,3.5
		s-3.1,1.5-5.7,1c0,0,0,0-2-0.4C212.6,534.4,212.4,534,212.6,533.8z"/>
</g>
<g class="st1">
	<path class="st2" d="M577.1,125.6c0-0.3,1.4-1.4,3-2.6c1.7-1.2,5.1,3.2,3.3,3.3C581.6,126.3,577.1,125.9,577.1,125.6z"/>
</g>
<g class="st1">
	<path class="st2" d="M147.4,137.6c-3.1-1.6-6.2-3.3-9.7-5.1c-0.6-0.3-0.4-1.2,0.3-1.2c4.7,0,8.3,2,10.2,5.4
		C148.6,137.2,148,137.9,147.4,137.6z"/>
</g>
<g class="st1">
	<path class="st2" d="M146.2,147.6c-1.2-0.6,0.3-2.2,3.4-3.5c0,0,0,0,1.6,2.5c0.4,0.7,0.4,0.7,0.4,0.7
		C151.1,148.6,147.5,148.2,146.2,147.6z"/>
</g>
<g class="st1">
	<path class="st2" d="M100.6,146.5c-0.2-0.4,1.3-1.6,3.3-2.5c2-1,7.5-3.3,7.6-3c0.2,0.3-1.1,2-3,3.1S100.8,146.9,100.6,146.5z"/>
</g>
<g class="st1">
	<path class="st2" d="M644.8,406.4c-0.2-0.2,0.6-1.7,1.7-3.2c1.1-1.5,6.1-2.2,6.1-2s-0.9,1.8-2.3,2.7S644.9,406.7,644.8,406.4z"/>
</g>
<g class="st1">
	<path class="st2" d="M215.8,331.1c-2.5,0.2-4.8,0.3-7.1,0.5c-0.6,0-1-0.7-0.6-1.1c1.9-2.3,4-2.5,7.9-0.7
		C216.7,330.1,216.5,331.1,215.8,331.1z"/>
</g>
<g class="st1">
	<path class="st2" d="M478.7,122.9c0.2,0.2,0,1.1-0.5,2.1s1.5,3.2,1.3,3.3c-0.2,0.2-1.7,0.1-2.9-0.5c-1.2-0.6-4.3-2.4-4.3-2.7
		c0-0.3,0.9-1.2,1.9-1.6S478.5,122.7,478.7,122.9z"/>
</g>
<g class="st1">
	<path class="st2" d="M707.9,390.8c0.2,0.2-0.3,1-1,1.8s-3.1,2.6-3.5,2.6s-1.5-1.1-1.3-2.1c0,0,0,0,0.6-0.4c1.4-1,1.4-1,1.4-1
		C705.9,390.8,707.7,390.6,707.9,390.8z"/>
</g>
<g class="st1">
	<path class="st2" d="M550,357.7c0.1,1.1,0.3,2.2,0.4,3.3c0.1,0.7-0.4,1.3-1.1,1.4h-0.1c-0.7,0.1-1.3-0.4-1.4-1.1
		c-0.1-1.1-0.2-2.2-0.4-3.3c-0.1-0.7,0.4-1.3,1.1-1.4l0,0C549.3,356.6,549.9,357.1,550,357.7z"/>
</g>
<g class="st1">
	<path class="st2" d="M126.9,136.6c0.1,0.2-0.8,1-1.9,1.8c-1.2,0.8-4.4,2.6-4.5,2.4c-0.2-0.2-0.1-1.2,0.5-1.7s2-2,1.7-2.2
		s-1.3-1-0.1-1S126.8,136.4,126.9,136.6z"/>
</g>
<g class="st1">
	<path class="st2" d="M198.6,157.9c0,0.2-1.4,0.6-3,1c0,0,0,0-1.4-0.1c-0.8,0-0.8,0-0.8,0c-0.8-0.9-0.8-2.2,0.1-3c0,0,0,0,0.7,0.1
		c1.5,0.2,1.5,0.2,1.5,0.2C197.4,156.8,198.6,157.7,198.6,157.9z"/>
</g>
</svg>
